<?xml version="1.0" encoding="utf-8"?>
<!-- Generator: Adobe Illustrator 25.2.1, SVG Export Plug-In . SVG Version: 6.00 Build 0)  -->
<svg version="1.1" xmlns="http://www.w3.org/2000/svg" xmlns:xlink="http://www.w3.org/1999/xlink" x="0px" y="0px"
	 viewBox="0 0 623.62 283.46" style="enable-background:new 0 0 623.62 283.46;" xml:space="preserve">
<style type="text/css">
	.st0{display:none;}
	.st1{display:inline;fill:#E7EDF1;}
	.st2{display:inline;}
	.st3{font-family:'Poppins-Light';}
	.st4{font-size:5px;}
	.st5{fill:#00467D;}
	.st6{fill:#E60046;}
	.st7{fill:#0091A0;}
	.st8{fill:#00AAE6;}
</style>
<g id="Hilfslinien" class="st0">
	<rect x="595.28" y="0.11" class="st1" width="28.35" height="22.68"/>
	<rect x="0.17" y="0.11" class="st1" width="28.35" height="22.68"/>
	<rect x="595.28" y="260.84" class="st1" width="28.35" height="22.68"/>
	<rect x="0.17" y="260.84" class="st1" width="28.35" height="22.68"/>
	<text transform="matrix(1 0 0 1 9.9526 13.283)" class="st2 st3 st4">1/10</text>
	<text transform="matrix(1 0 0 1 606.3317 13.283)" class="st2 st3 st4">1/10</text>
	<text transform="matrix(1 0 0 1 9.9526 274.2484)" class="st2 st3 st4">1/10</text>
	<text transform="matrix(1 0 0 1 606.3317 274.2484)" class="st2 st3 st4">1/10</text>
</g>
<g id="Ebene_1">
	<g>
		<g>
			<path class="st5" d="M455.96,180.74h26.86c0.23-1.3,0.31-2.69,0.31-4.3c0-12.51-8.52-20.8-20.57-20.8
				c-13.2,0-21.11,9.21-21.11,21.8c0,13.05,8.98,21.87,21.11,21.87c9.98,0,16.89-5.53,19.42-13.28h-9.44
				c-1.92,3.91-5.22,5.91-9.98,5.91c-7.52,0-12.36-5.76-12.36-14.2c0-8.9,4.68-14.74,11.97-14.74c6.68,0,11.74,4.22,11.82,10.67
				h-18.04C454.5,175.13,454.65,178.97,455.96,180.74z M569.47,199c5.3,0,8.67-3.99,8.67-8.83v-16.5c0-12.05-7.75-18.04-17.35-18.04
				c-4.99,0-9.75,2.07-12.59,6.29v-5.6h-8.67v42.29h8.67v-23.64c0-7.6,4.14-11.74,10.67-11.74c6.52,0,10.59,4.14,10.59,11.74V199z
				 M417.89,199c5.3,0,8.67-3.99,8.67-8.83v-13.82c0-8.6,3.53-11.28,10.44-11.28h2.23v-9.44c-5.83,0-10.13,2.53-12.66,6.83v-6.14
				h-8.67V199z M331.85,136.3c-5.22,0-8.67,3.99-8.67,8.83v53.5h8.67v-23.64c0-7.6,4.14-11.74,10.67-11.74
				c6.52,0,10.59,4.14,10.59,11.74v23.64h8.67v-24.94c0-10.75-6.22-18.04-16.81-18.04c-5.45,0-10.13,2-13.12,5.6V136.3z
				 M510.3,191.71c-7.06,0-12.28-5.14-12.28-14.28c0-8.44,4.84-14.2,12.51-14.2c8.21,0,12.74,6.45,12.74,14.2
				C523.27,186.65,517.05,191.71,510.3,191.71z M510.3,199.31c12.2,0,21.95-8.67,21.95-21.87c0-12.97-9.21-21.8-21.57-21.8
				c-12.28,0-21.57,8.6-21.57,21.8C489.11,190.79,498.48,199.31,510.3,199.31z M383.43,180.74h26.86c0.23-1.3,0.31-2.69,0.31-4.3
				c0-12.51-8.52-20.8-20.57-20.8c-13.2,0-21.11,9.21-21.11,21.8c0,13.05,8.98,21.87,21.11,21.87c9.98,0,16.89-5.53,19.42-13.28H400
				c-1.92,3.91-5.22,5.91-9.98,5.91c-7.52,0-12.36-5.76-12.36-14.2c0-8.9,4.68-14.74,11.97-14.74c6.68,0,11.74,4.22,11.82,10.67
				h-18.04C381.97,175.13,382.12,178.97,383.43,180.74z"/>
			<g>
				<path class="st5" d="M400.18,129.22v13.11h-2.15v-5.73h-6.17v5.73h-2.15v-13.11h2.15v5.62h6.17v-5.62H400.18z"/>
				<path class="st5" d="M412.74,137.93h-7.94c0.06,0.83,0.37,1.5,0.92,2c0.55,0.5,1.23,0.76,2.04,0.76c1.16,0,1.97-0.48,2.45-1.45
					h2.32c-0.32,0.96-0.88,1.74-1.71,2.35c-0.82,0.61-1.84,0.91-3.06,0.91c-0.99,0-1.88-0.22-2.67-0.67s-1.4-1.07-1.85-1.89
					c-0.45-0.81-0.67-1.75-0.67-2.82c0-1.07,0.22-2.01,0.65-2.82c0.43-0.81,1.04-1.44,1.83-1.88c0.79-0.44,1.69-0.66,2.71-0.66
					c0.98,0,1.85,0.21,2.62,0.64c0.77,0.43,1.36,1.03,1.79,1.8c0.43,0.77,0.64,1.66,0.64,2.67
					C412.81,137.27,412.79,137.62,412.74,137.93z M410.57,136.2c-0.01-0.79-0.3-1.43-0.85-1.9c-0.55-0.48-1.24-0.72-2.05-0.72
					c-0.74,0-1.38,0.23-1.9,0.71s-0.84,1.11-0.94,1.91H410.57z"/>
				<path class="st5" d="M417.36,128.37v13.95h-2.15v-13.95H417.36z"/>
				<path class="st5" d="M435.33,132.28c0.65,0.34,1.16,0.84,1.53,1.51c0.37,0.67,0.56,1.47,0.56,2.41v6.13h-2.13v-5.81
					c0-0.93-0.23-1.64-0.7-2.14c-0.47-0.5-1.1-0.74-1.9-0.74c-0.8,0-1.44,0.25-1.91,0.74c-0.47,0.5-0.71,1.21-0.71,2.14v5.81h-2.13
					v-5.81c0-0.93-0.23-1.64-0.7-2.14c-0.47-0.5-1.1-0.74-1.9-0.74c-0.8,0-1.44,0.25-1.91,0.74c-0.47,0.5-0.71,1.21-0.71,2.14v5.81
					h-2.15v-10.39h2.15v1.19c0.35-0.43,0.8-0.76,1.34-1c0.54-0.24,1.12-0.36,1.73-0.36c0.83,0,1.57,0.18,2.22,0.53
					s1.16,0.86,1.51,1.53c0.31-0.63,0.8-1.13,1.47-1.5c0.67-0.37,1.38-0.56,2.15-0.56C433.95,131.77,434.69,131.94,435.33,132.28z"
					/>
				<path class="st5" d="M447.83,132.28c0.62,0.34,1.11,0.84,1.47,1.51c0.36,0.67,0.54,1.47,0.54,2.41v6.13h-2.13v-5.81
					c0-0.93-0.23-1.64-0.7-2.14c-0.47-0.5-1.1-0.74-1.9-0.74c-0.8,0-1.44,0.25-1.91,0.74c-0.47,0.5-0.71,1.21-0.71,2.14v5.81h-2.15
					v-13.95h2.15v4.77c0.36-0.44,0.83-0.78,1.39-1.02c0.56-0.24,1.17-0.36,1.84-0.36C446.5,131.77,447.21,131.94,447.83,132.28z"/>
				<path class="st5" d="M454.61,141.82c-0.79-0.45-1.41-1.07-1.87-1.89c-0.45-0.81-0.68-1.75-0.68-2.82c0-1.06,0.23-1.99,0.7-2.81
					s1.1-1.45,1.9-1.89c0.8-0.44,1.7-0.66,2.7-0.66s1.89,0.22,2.7,0.66c0.8,0.44,1.44,1.07,1.9,1.89c0.46,0.82,0.7,1.75,0.7,2.81
					c0,1.06-0.24,1.99-0.72,2.81c-0.48,0.82-1.13,1.45-1.95,1.9c-0.82,0.45-1.73,0.67-2.72,0.67
					C456.29,142.49,455.4,142.27,454.61,141.82z M458.83,140.23c0.48-0.26,0.88-0.66,1.18-1.19c0.3-0.53,0.45-1.17,0.45-1.92
					c0-0.75-0.14-1.39-0.43-1.91c-0.29-0.52-0.67-0.91-1.15-1.18c-0.48-0.27-0.99-0.4-1.55-0.4s-1.07,0.13-1.54,0.4
					c-0.47,0.26-0.85,0.66-1.12,1.18c-0.28,0.52-0.41,1.16-0.41,1.91c0,1.12,0.29,1.98,0.86,2.59c0.57,0.61,1.29,0.91,2.16,0.91
					C457.82,140.63,458.34,140.5,458.83,140.23z"/>
				<path class="st5" d="M467.13,128.37v13.95h-2.15v-13.95H467.13z"/>
				<path class="st5" d="M472.84,133.69v5.75c0,0.39,0.09,0.67,0.27,0.84c0.18,0.17,0.49,0.25,0.93,0.25h1.32v1.79h-1.7
					c-0.97,0-1.71-0.23-2.22-0.68c-0.52-0.45-0.77-1.19-0.77-2.21v-5.75h-1.23v-1.75h1.23v-2.58h2.17v2.58h2.53v1.75H472.84z"/>
				<path class="st5" d="M479.72,140.57h4.71v1.75h-7.2v-1.75l4.73-6.88h-4.73v-1.75h7.2v1.75L479.72,140.57z"/>
				<path class="st5" d="M495.34,134.59v1.81h-7.75v-1.81H495.34z"/>
				<path class="st5" d="M500.84,140.46h6.09v1.87h-8.64v-1.68l6.07-9.56h-6.07v-1.87h8.64v1.68L500.84,140.46z"/>
				<path class="st5" d="M518.92,137.93h-7.94c0.06,0.83,0.37,1.5,0.92,2c0.55,0.5,1.23,0.76,2.04,0.76c1.16,0,1.97-0.48,2.45-1.45
					h2.32c-0.32,0.96-0.88,1.74-1.71,2.35c-0.82,0.61-1.84,0.91-3.06,0.91c-0.99,0-1.88-0.22-2.67-0.67
					c-0.79-0.45-1.4-1.07-1.85-1.89c-0.45-0.81-0.67-1.75-0.67-2.82c0-1.07,0.22-2.01,0.65-2.82c0.43-0.81,1.04-1.44,1.83-1.88
					c0.79-0.44,1.69-0.66,2.71-0.66c0.98,0,1.85,0.21,2.62,0.64c0.77,0.43,1.36,1.03,1.79,1.8c0.43,0.77,0.64,1.66,0.64,2.67
					C519,137.27,518.97,137.62,518.92,137.93z M516.75,136.2c-0.01-0.79-0.3-1.43-0.85-1.9c-0.55-0.48-1.24-0.72-2.05-0.72
					c-0.74,0-1.38,0.23-1.9,0.71s-0.84,1.11-0.94,1.91H516.75z"/>
				<path class="st5" d="M528.83,132.28c0.65,0.34,1.15,0.84,1.52,1.51c0.36,0.67,0.55,1.47,0.55,2.41v6.13h-2.13v-5.81
					c0-0.93-0.23-1.64-0.7-2.14c-0.47-0.5-1.1-0.74-1.9-0.74c-0.8,0-1.44,0.25-1.91,0.74c-0.47,0.5-0.71,1.21-0.71,2.14v5.81h-2.15
					v-10.39h2.15v1.19c0.35-0.43,0.8-0.76,1.35-1c0.55-0.24,1.13-0.36,1.74-0.36C527.45,131.77,528.18,131.94,528.83,132.28z"/>
				<path class="st5" d="M536.42,133.69v5.75c0,0.39,0.09,0.67,0.27,0.84c0.18,0.17,0.49,0.25,0.93,0.25h1.32v1.79h-1.7
					c-0.97,0-1.71-0.23-2.22-0.68s-0.77-1.19-0.77-2.21v-5.75h-1.23v-1.75h1.23v-2.58h2.17v2.58h2.53v1.75H536.42z"/>
				<path class="st5" d="M544.8,132.21c0.52-0.3,1.14-0.44,1.86-0.44v2.22h-0.55c-0.84,0-1.48,0.21-1.91,0.64
					c-0.43,0.43-0.65,1.17-0.65,2.22v5.47h-2.15v-10.39h2.15v1.51C543.86,132.92,544.28,132.5,544.8,132.21z"/>
				<path class="st5" d="M558.33,131.94v10.39h-2.15v-1.23c-0.34,0.43-0.78,0.76-1.33,1.01c-0.55,0.24-1.13,0.37-1.74,0.37
					c-0.82,0-1.55-0.17-2.2-0.51c-0.65-0.34-1.16-0.84-1.53-1.51c-0.37-0.67-0.56-1.47-0.56-2.41v-6.11h2.13v5.79
					c0,0.93,0.23,1.64,0.7,2.14c0.47,0.5,1.1,0.74,1.9,0.74c0.8,0,1.44-0.25,1.91-0.74c0.47-0.5,0.71-1.21,0.71-2.14v-5.79H558.33z"
					/>
				<path class="st5" d="M576.21,132.28c0.65,0.34,1.16,0.84,1.53,1.51c0.37,0.67,0.56,1.47,0.56,2.41v6.13h-2.13v-5.81
					c0-0.93-0.23-1.64-0.7-2.14c-0.47-0.5-1.1-0.74-1.9-0.74c-0.8,0-1.44,0.25-1.91,0.74c-0.47,0.5-0.71,1.21-0.71,2.14v5.81h-2.13
					v-5.81c0-0.93-0.23-1.64-0.7-2.14c-0.47-0.5-1.1-0.74-1.9-0.74c-0.8,0-1.44,0.25-1.91,0.74c-0.47,0.5-0.71,1.21-0.71,2.14v5.81
					h-2.15v-10.39h2.15v1.19c0.35-0.43,0.8-0.76,1.34-1c0.54-0.24,1.12-0.36,1.73-0.36c0.83,0,1.57,0.18,2.22,0.53
					c0.65,0.35,1.16,0.86,1.51,1.53c0.31-0.63,0.8-1.13,1.47-1.5c0.67-0.37,1.38-0.56,2.15-0.56
					C574.83,131.77,575.56,131.94,576.21,132.28z"/>
			</g>
		</g>
	</g>
	<g>
		<path class="st6" d="M166.57,184.35c5.36-0.6,10.59-1.91,15.63-3.95c0.03-0.01,0.07-0.03,0.1-0.04c-2.56-0.94-5.35-2.41-7.95-4.44
			c-5.28,1.51-10.76,2.18-16.35,1.98c-0.08,0-0.15-0.01-0.23-0.01C160.46,180.62,163.53,182.77,166.57,184.35z"/>
		<path class="st6" d="M110.77,144.57c-1.48-3.74-2.5-7.61-3.09-11.55c-2.22,0.84-4.38,1.74-6.46,2.67
			c0.69,3.88,1.77,7.68,3.23,11.38c2.22,5.61,5.26,10.78,9.04,15.46c0.03-3.21,0.45-6.52,1.4-9.77
			C113.29,150.17,111.9,147.44,110.77,144.57z"/>
		<path class="st6" d="M140.04,181.34c5.68,2,11.63,3.14,17.73,3.35c0.71,0.03,1.43,0.04,2.14,0.04c0.9,0,1.8-0.02,2.7-0.06
			c-2.89-1.84-5.7-4.18-8.11-7.02c-5.43-0.55-10.7-1.91-15.69-4.08c-1.46-0.64-2.88-1.35-4.27-2.1c0.57,1.77,1.22,3.3,1.87,4.49
			C137.46,177.89,138.69,179.69,140.04,181.34z"/>
		<path class="st6" d="M185.43,178.96c3.63-1.73,7.06-3.81,10.26-6.23c-2.09-0.64-4.51-1.82-6.74-3.56
			c-2.93,1.94-6.03,3.59-9.31,4.92c-0.87,0.35-1.74,0.68-2.62,0.98c2.59,1.78,5.3,3.01,7.67,3.69
			C184.95,178.83,185.19,178.89,185.43,178.96z"/>
		<path class="st6" d="M196.51,170.61c0.49,0.14,0.94,0.25,1.4,0.36c0.87-0.73,1.73-1.47,2.57-2.25
			c5.48-5.11,9.87-11.09,13.08-17.78c-1.8-2.01-3.45-3.94-5.02-5.77l-0.11,0.62c-2.9,6.82-7.14,12.86-12.59,17.95
			c-1.56,1.45-3.2,2.79-4.9,4.04C192.64,169.04,194.54,170.04,196.51,170.61L196.51,170.61z"/>
		<path class="st6" d="M115.81,165.25c0.16,0.18,0.31,0.36,0.48,0.54c5.62,6.02,12.28,10.74,19.8,14.01c0.01,0,0.02,0.01,0.02,0.01
			c-0.6-0.9-1.18-1.82-1.7-2.78c-1.02-1.87-1.99-4.36-2.69-7.21c-3.82-2.41-7.32-5.31-10.45-8.67c-1.71-1.83-3.28-3.77-4.7-5.8
			C115.81,158.68,115.61,162.05,115.81,165.25z"/>
		<path class="st6" d="M107.12,123.33c0.23-6.68,1.69-13.14,4.33-19.21c2.9-6.66,7.08-12.56,12.42-17.54
			c4.69-4.37,10.06-7.82,15.96-10.24c6.94-2.85,14.3-4.16,21.86-3.9l0.24-6.8c-8.54-0.3-16.84,1.18-24.68,4.4
			c-6.67,2.74-12.73,6.63-18.02,11.56c-6.02,5.62-10.74,12.28-14.01,19.8c-2.98,6.85-4.63,14.15-4.89,21.68
			c-0.09,2.61,0,5.21,0.25,7.77c2.13-0.81,4.34-1.6,6.63-2.34C107.09,126.8,107.06,125.07,107.12,123.33z"/>
	</g>
	<path class="st6" d="M155.56,43.31c10.11-0.53,20.08,0.77,29.62,3.88c10.25,3.33,19.58,8.59,27.79,15.59
		c1.6-1.62,3.34-3.12,5.25-4.46c-9.09-7.95-19.48-13.88-30.94-17.6c-10.34-3.36-21.13-4.78-32.08-4.2
		c-12.71,0.67-24.85,3.94-36.07,9.74l3.12,6.04C132.61,46.95,143.82,43.93,155.56,43.31z"/>
	<path class="st6" d="M112.99,73.7c7.32-6.67,15.85-11.62,25.35-14.7c8.18-2.66,16.64-3.78,25.15-3.33
		c9.78,0.51,19.19,3.04,27.96,7.51c7.64,3.9,14.42,9.09,20.14,15.43c6.55,7.26,11.42,15.7,14.46,25.08
		c2.66,8.19,3.78,16.67,3.33,25.19c-0.48,8.95-2.66,17.59-6.45,25.71c0.59,0.57,1.16,1.12,1.72,1.65
		c4.12-8.59,6.49-17.74,6.99-27.25c0.47-8.8-0.69-17.55-3.44-26.01c-3.15-9.68-8.17-18.4-14.94-25.9
		c-5.91-6.55-12.9-11.91-20.79-15.93c-9.06-4.62-18.77-7.22-28.88-7.76c-8.79-0.46-17.53,0.69-25.97,3.44
		c-9.8,3.19-18.61,8.29-26.17,15.18c-6.43,5.86-11.7,12.77-15.66,20.55l2.02,1.03C101.66,86.06,106.76,79.37,112.99,73.7z"/>
	<g>
		<path class="st7" d="M238.72,175.69c0.21,0.19,0.42,0.39,0.63,0.59C239.14,176.08,238.93,175.88,238.72,175.69z"/>
		<path class="st7" d="M269.54,210.74C269.54,210.74,269.54,210.74,269.54,210.74C269.54,210.74,269.54,210.74,269.54,210.74z"/>
		<path class="st7" d="M260.01,204.21c0.06,0.4,0.12,0.79,0.15,1.19C260.13,205.01,260.07,204.61,260.01,204.21z"/>
		<path class="st7" d="M239.54,176.44c0.26,0.24,0.53,0.49,0.8,0.75C240.06,176.94,239.8,176.69,239.54,176.44z"/>
		<path class="st7" d="M247.35,184.06c0.41,0.41,0.83,0.84,1.27,1.28C248.18,184.9,247.76,184.47,247.35,184.06z"/>
		<path class="st7" d="M259.76,202.9c0.09,0.41,0.17,0.82,0.24,1.23C259.93,203.72,259.85,203.31,259.76,202.9z"/>
		<path class="st7" d="M193.27,130.2c1.12-0.71,2.22-1.43,3.31-2.17c-2.2-1.42-4.62-2.7-7.34-3.81c-1.15,0.77-2.31,1.52-3.48,2.26
			C188.57,127.49,191.02,128.74,193.27,130.2z"/>
		<path class="st7" d="M182.91,125.57c1.23-0.76,2.46-1.54,3.68-2.33c-2.89-0.98-6.11-1.77-9.7-2.33c-1.52,0.96-3.05,1.89-4.58,2.81
			C176.35,124.09,179.84,124.71,182.91,125.57z"/>
		<path class="st7" d="M269.54,210.74C269.54,210.74,269.54,210.74,269.54,210.74c0-0.55-0.02-1.1-0.05-1.65v0
			c-0.22-3.5-1.15-7.02-2.8-10.48c-0.37-0.77-0.77-1.53-1.21-2.29c-1.74-3-4.03-5.94-6.9-8.73c-0.01-0.01-0.03-0.03-0.04-0.04
			c-0.02-0.02-0.04-0.04-0.06-0.06v0c-2.26-2.19-4.31-4.16-6.21-5.97c-0.54-0.52-1.07-1.02-1.59-1.51
			c-2.35-2.22-4.44-4.17-6.34-5.92c-0.54-0.5-1.07-0.98-1.58-1.45c-9.21-8.4-13.96-12.2-23.21-21.42
			c-4.8-4.79-8.73-10.29-13.56-15.33c-1.15,0.8-2.33,1.58-3.52,2.32c4.38,4.73,8.8,10.44,14.98,16.94
			c11.71,12.31,14.96,14.69,21.08,20.32c0,0,0,0,0,0c0.07,0.07,0.15,0.14,0.22,0.2c0.21,0.19,0.42,0.39,0.63,0.59
			c0.06,0.06,0.12,0.11,0.18,0.17c0.26,0.24,0.53,0.49,0.8,0.75c0.01,0.01,0.03,0.03,0.04,0.04c0,0,0,0,0,0
			c1.88,1.77,4.06,3.89,6.79,6.64c0,0,0,0,0,0c0.06,0.06,0.12,0.13,0.18,0.19c0.41,0.41,0.83,0.84,1.27,1.28
			c0.05,0.05,0.09,0.1,0.14,0.15c0,0,0,0,0,0c0.16,0.17,0.32,0.33,0.49,0.5c5.95,6.08,9.32,11.7,10.5,16.91v0c0,0,0,0,0,0
			c0.09,0.41,0.18,0.82,0.24,1.23c0,0.03,0.01,0.05,0.01,0.08c0.06,0.4,0.12,0.79,0.15,1.19c0,0,0,0,0,0l0,0
			c0.44,4.61-0.88,8.89-3.69,12.85c-0.01,0.01-0.01,0.02-0.02,0.03c-3,4.23-7.68,8.1-13.72,11.66
			c-18.96,11.16-45.53-1.92-74.54-2.06c-29.01-0.14-57.15,8.66-74.02,1.32c-16.88-7.35,5.25-22.35,5.17-39.53
			c-0.08-17.18-26.68-37.16-9.98-47.68c14.93-9.4,36.52-16.13,59.45-18.08c2.19-1.2,4.46-2.46,6.75-3.77
			c-29.49,1.19-58.88,9.57-73.37,20.23c-17.92,13.19,9.03,29.41,9.03,48.58c0,19.17-30.61,37.05-9.03,49.61
			c21.58,12.56,51.39-1.04,84.32-1.04c32.93,0,62.74,13.61,84.32,1.04c11.68-6.8,18.01-16.27,18.64-26.18c0,0,0,0,0,0
			C269.52,211.84,269.54,211.29,269.54,210.74z"/>
		<path class="st7" d="M200.85,136.56c1.18-0.73,2.35-1.49,3.49-2.28c-1.76-1.72-3.66-3.36-5.77-4.88c-1.08,0.75-2.18,1.49-3.3,2.21
			C197.24,133.08,199.06,134.74,200.85,136.56z"/>
		<path class="st7" d="M165.96,123.37c0.8,0.02,1.57,0.05,2.33,0.08c1.67-0.97,3.35-1.97,5.03-2.99c-2.14-0.22-4.4-0.37-6.81-0.43
			c-2.05-0.05-4.11-0.06-6.17-0.03c-2.09,1.22-4.16,2.4-6.2,3.54C158.07,123.34,162.01,123.28,165.96,123.37z"/>
		<path class="st7" d="M269.54,210.74c0,0.55-0.02,1.1-0.05,1.64c0,0,0,0,0,0C269.52,211.84,269.54,211.29,269.54,210.74z"/>
		<path class="st7" d="M256.48,218.25c-0.01,0.01-0.01,0.02-0.02,0.03C256.46,218.27,256.47,218.26,256.48,218.25z"/>
		<path class="st7" d="M269.54,210.74c0-0.55-0.02-1.1-0.05-1.64v0C269.52,209.64,269.54,210.19,269.54,210.74z"/>
		<polygon class="st7" points="259.75,202.9 259.75,202.9 259.76,202.9 		"/>
		<polygon class="st7" points="260.16,205.4 260.16,205.4 260.16,205.4 		"/>
		<path class="st7" d="M260,204.13c0,0.03,0.01,0.05,0.01,0.08C260,204.19,260,204.16,260,204.13z"/>
		<path class="st7" d="M266.68,198.62c-0.37-0.77-0.77-1.53-1.21-2.29C265.91,197.08,266.32,197.85,266.68,198.62z"/>
		<path class="st7" d="M258.46,187.5c0.02,0.02,0.04,0.04,0.06,0.06C258.51,187.54,258.49,187.52,258.46,187.5L258.46,187.5z"/>
		<path class="st7" d="M252.25,181.53c-0.54-0.52-1.07-1.02-1.59-1.51C251.18,180.51,251.71,181.01,252.25,181.53z"/>
		<path class="st7" d="M247.17,183.87C247.17,183.87,247.17,183.87,247.17,183.87c0.06,0.06,0.12,0.12,0.18,0.19
			C247.29,184,247.22,183.93,247.17,183.87z"/>
		<path class="st7" d="M248.76,185.49c-0.05-0.05-0.09-0.1-0.14-0.15C248.66,185.39,248.71,185.44,248.76,185.49
			C248.76,185.49,248.76,185.49,248.76,185.49z"/>
		<path class="st7" d="M239.36,176.28c0.06,0.06,0.12,0.11,0.18,0.17C239.48,176.39,239.42,176.33,239.36,176.28z"/>
		<path class="st7" d="M240.38,177.23c-0.01-0.01-0.03-0.03-0.04-0.04C240.35,177.21,240.36,177.22,240.38,177.23
			C240.38,177.23,240.38,177.23,240.38,177.23z"/>
		<path class="st7" d="M244.32,174.11c-0.54-0.5-1.07-0.98-1.58-1.45C243.25,173.13,243.78,173.61,244.32,174.11z"/>
		<path class="st7" d="M238.5,175.49C238.5,175.49,238.5,175.49,238.5,175.49c0.07,0.07,0.14,0.13,0.22,0.2
			C238.65,175.62,238.58,175.55,238.5,175.49z"/>
	</g>
	<g>
		<path class="st8" d="M199.32,83.15c-0.46,0.85-0.92,1.69-1.38,2.53c-9.09,16.62-37.64,32.04-56.53,42.24
			c-5.12,2.77-9.55,5.16-12.67,7.08c-20.53,12.65-16.15,36.89-10.81,46.65c7.18,13.13,20.58,20.86,30.73,23.72
			c17.25,4.86,29.88,3.87,41.03,3c7.23-0.57,14.06-1.1,21.25,0.04c5.79,0.92,10.68,3.05,15.86,5.31c6.08,2.65,12.37,5.39,20.43,6.21
			c1.07,0.11,2.13,0.16,3.18,0.16c1.72,0,3.38-0.16,5.01-0.45c0.74-0.91,1.4-1.85,1.97-2.8c-3.1,0.88-6.43,1.17-9.93,0.82
			c-7.71-0.78-13.83-3.45-19.75-6.03c-5.08-2.21-10.33-4.5-16.41-5.47c-3.25-0.52-6.41-0.71-9.55-0.71c-4.06,0-8.09,0.32-12.24,0.64
			c-10.95,0.86-23.37,1.83-40.23-2.92c-9.71-2.74-22.52-10.12-29.36-22.63c-5-9.14-9.13-31.84,10.01-43.63
			c3.07-1.89,7.47-4.27,12.56-7.02c19.13-10.33,48.03-25.94,57.44-43.15c0.46-0.84,0.92-1.69,1.38-2.54
			c1.85-3.42,3.73-6.87,5.8-10.16c-0.56-0.52-1.15-1.02-1.73-1.52C203.21,75.98,201.25,79.58,199.32,83.15z"/>
		<path class="st8" d="M273.95,163.25c-4.46-16.9-9.52-36.06-3.53-57.01c4.46-15.59,0.61-32.72-9.59-42.63
			c-10.23-9.94-22.39-13.56-33.38-9.92c-9.61,3.18-15.83,9.56-20.81,16.95c0.58,0.5,1.16,1,1.72,1.52
			c4.79-7.15,10.73-13.31,19.8-16.31c10.16-3.36,21.49,0.06,31.09,9.39c9.61,9.34,13.22,25.57,8.99,40.39
			c-6.17,21.55-1.02,41.03,3.52,58.21c4.21,15.93,7.84,29.69,1.08,40.73c-1.02,1.67-2.14,3.17-3.35,4.54c0.07,1.1,0.07,2.2,0,3.29
			c1.95-1.89,3.73-4.1,5.29-6.64C282.03,193.88,278.29,179.68,273.95,163.25z"/>
		<path class="st8" d="M203.13,93.33l-1.16,2.15c-7.65,14.05-31.73,27.11-47.66,35.75c-4.33,2.35-8.07,4.38-10.71,6.01
			c-17.44,10.79-13.72,31.47-9.19,39.79c6.09,11.18,17.45,17.77,26.06,20.2h0c14.58,4.13,25.1,3.23,34.38,2.44
			c6.03-0.51,11.73-1,17.8-0.03c4.86,0.78,9.17,2.58,13.73,4.49c5.41,2.27,11.01,4.61,17.85,5.31c0.9,0.09,1.79,0.14,2.66,0.14
			c4.92,0,9.41-1.44,13.27-4.19c-0.08-0.82-0.22-1.66-0.41-2.5c-4.27,3.41-9.44,4.89-15.3,4.29c-6.51-0.66-11.95-2.94-17.21-5.14
			c-4.48-1.88-9.12-3.82-14.24-4.64c-2.69-0.43-5.28-0.59-7.85-0.59c-3.49,0-6.94,0.29-10.5,0.6c-9.09,0.77-19.39,1.65-33.57-2.37h0
			c-8.16-2.31-18.94-8.54-24.69-19.11c-1.99-3.66-4.06-10.52-3.34-17.82c0.56-5.68,3.05-13.58,11.74-18.96
			c2.59-1.6,6.3-3.62,10.6-5.95c16.17-8.77,40.6-22.02,48.57-36.66l1.17-2.15c2.53-4.69,5.11-9.44,8.37-13.57
			c-0.49-0.6-1-1.19-1.51-1.77C208.5,83.4,205.79,88.4,203.13,93.33z"/>
		<path class="st8" d="M227.7,70.41c8.52-2.83,18.02,0.06,26.07,7.92c7.78,7.59,10.69,21.75,7.08,34.42
			c-5.24,18.38-0.63,34.84,3.44,49.35c3.73,13.3,6.94,24.78,1.3,34.04c-0.04,0.06-0.08,0.12-0.12,0.18c0.44,0.76,0.85,1.53,1.21,2.3
			c0.29-0.42,0.57-0.85,0.84-1.3c6.16-10.1,2.82-22.03-1.05-35.83c-3.99-14.23-8.5-30.35-3.44-48.12
			c3.83-13.44,0.67-28.51-7.67-36.66c-8.68-8.48-19.03-11.56-28.37-8.45c-5.71,1.9-10.01,5.14-13.52,9.06
			c0.51,0.57,1.01,1.16,1.5,1.75C218.3,75.29,222.35,72.18,227.7,70.41z"/>
		<path class="st8" d="M206.95,103.5l-0.95,1.76c-6.22,11.48-25.83,22.19-38.8,29.27c-3.53,1.93-6.59,3.59-8.75,4.94
			c-14.35,8.94-11.29,26.04-7.57,32.93c4.99,9.23,14.32,14.67,21.38,16.68c11.9,3.39,20.32,2.59,27.75,1.88
			c4.83-0.46,9.4-0.89,14.34-0.1c3.93,0.63,7.65,2.11,11.59,3.68c4.74,1.89,9.65,3.84,15.28,4.41c0.76,0.08,1.51,0.12,2.25,0.12
			c4.79,0,9.01-1.64,12.5-4.83c-0.4-0.63-0.84-1.27-1.31-1.91c-3.6,3.38-8.07,4.88-13.2,4.36c-5.32-0.54-10.07-2.43-14.67-4.26
			c-4.06-1.61-7.89-3.14-12.07-3.81c-2.13-0.34-4.17-0.47-6.18-0.47c-2.92,0-5.78,0.27-8.73,0.55c-7.23,0.69-15.42,1.47-26.91-1.81
			c-6.62-1.88-15.35-6.97-20.01-15.58c-1.61-2.98-3.29-8.57-2.71-14.52c0.45-4.62,2.46-11.04,9.48-15.41
			c2.1-1.31,5.13-2.96,8.63-4.88c13.21-7.21,33.17-18.11,39.71-30.18l0.95-1.77c2.95-5.51,5.98-11.14,10.61-15.17
			c-0.4-0.66-0.79-1.33-1.21-1.98C213.28,91.71,210.08,97.67,206.95,103.5z"/>
		<path class="st8" d="M227.24,84.97c6.86-2.3,14.54,0.06,21.05,6.46c6.09,5.99,8.22,17.69,5.17,28.45
			c-4.31,15.21-0.23,28.64,3.37,40.48c3.21,10.56,5.97,19.69,1.63,27.13c0.04,0.03,0.07,0.07,0.11,0.1
			c0.53,0.52,1.05,1.04,1.54,1.57c0.06-0.09,0.11-0.17,0.17-0.26c5.06-8.35,2.12-18.01-1.27-29.2c-3.51-11.55-7.48-24.63-3.36-39.21
			c3.26-11.53,0.89-24.15-5.76-30.69c-7.14-7.02-15.66-9.56-23.36-6.99c-2.41,0.81-4.5,1.91-6.37,3.22c0.42,0.64,0.8,1.3,1.19,1.95
			C223.08,86.75,225.02,85.72,227.24,84.97z"/>
		<path class="st8" d="M242.82,104.53c4.41,4.37,5.75,13.62,3.27,22.49c-3.38,12.05,0.17,22.45,3.31,31.62
			c2.75,8.04,5.12,14.98,1.7,20.68c-0.14,0.24-0.29,0.47-0.44,0.7c0.54,0.51,1.1,1.04,1.67,1.58c0.25-0.36,0.49-0.73,0.72-1.11
			c3.96-6.6,1.43-14.01-1.5-22.58c-3.03-8.86-6.46-18.9-3.27-30.27c3.15-11.23,0.21-20.68-3.85-24.71
			c-5.59-5.54-12.25-7.56-18.31-5.54c0.29,0.7,0.59,1.4,0.87,2.11C232.14,97.83,237.91,99.65,242.82,104.53z"/>
		<path class="st8" d="M210.76,113.68l-0.73,1.38c-4.78,8.91-19.92,17.26-29.94,22.78c-2.74,1.51-5.1,2.81-6.78,3.87
			c-11.25,7.08-8.87,20.62-5.95,26.06c3.9,7.29,11.19,11.58,16.71,13.17c9.24,2.66,15.56,1.95,21.13,1.33
			c3.63-0.41,7.06-0.79,10.86-0.17c3,0.49,6.13,1.64,9.45,2.86c4.08,1.5,8.31,3.06,12.71,3.51c0.58,0.06,1.15,0.09,1.72,0.09
			c3.31,0,6.29-1.04,8.83-3.06c-0.55-0.56-1.08-1.1-1.59-1.62c-2.47,1.9-5.38,2.68-8.71,2.33c-4.13-0.42-8.21-1.93-12.16-3.38
			c-3.42-1.26-6.65-2.45-9.87-2.97c-1.58-0.26-3.08-0.36-4.55-0.36c-2.34,0-4.6,0.25-6.93,0.51c-5.63,0.63-11.45,1.28-20.25-1.25
			c-5.07-1.46-11.77-5.39-15.34-12.06c-2.59-4.84-4.74-16.85,5.16-23.07c1.62-1.02,3.96-2.31,6.67-3.8
			c10.25-5.65,25.75-14.19,30.84-23.7l0.74-1.39c3.02-5.69,6.14-11.54,12.1-14.41c-0.27-0.71-0.57-1.41-0.86-2.1
			C217.32,101.37,213.99,107.61,210.76,113.68z"/>
		<path class="st8" d="M237.33,117.62c3.2,3.23,2.99,10.63,1.36,16.54c-2.45,8.9,0.59,16.26,3.28,22.75
			c2.33,5.64,4.17,10.09,1.87,14c-0.37,0.63-0.77,1.18-1.17,1.69c0.54,0.49,1.1,1,1.67,1.53c0.51-0.62,1.01-1.29,1.46-2.06
			c2.87-4.88,0.64-10.29-1.73-16.01c-2.54-6.16-5.43-13.14-3.19-21.29c1.67-6.05,2.16-14.59-1.94-18.73
			c-2.63-2.65-5.59-4.2-8.55-4.56c0.15,0.79,0.3,1.58,0.42,2.37C233.05,114.29,235.3,115.56,237.33,117.62z"/>
		<path class="st8" d="M225.59,111.96c-5.86,2.01-8.48,7.04-11.02,11.9l-0.52,0.99c-3.34,6.34-14.01,12.33-21.07,16.29
			c-1.94,1.09-3.62,2.03-4.82,2.8c-8.15,5.22-6.43,15.19-4.32,19.19c2.81,5.34,8.06,8.49,12.03,9.65
			c6.59,1.93,10.81,1.31,14.54,0.77c2.52-0.37,4.69-0.69,7.35-0.25c2.08,0.34,4.6,1.17,7.27,2.04c3.44,1.12,6.99,2.29,10.18,2.62
			c0.42,0.04,0.83,0.07,1.24,0.07c1.41,0,2.71-0.27,3.92-0.8c-0.66-0.62-1.28-1.2-1.87-1.75c-0.94,0.25-1.95,0.34-3.05,0.23
			c-2.95-0.31-6.39-1.43-9.71-2.52c-2.75-0.9-5.36-1.75-7.61-2.12c-1.05-0.17-2.04-0.24-2.98-0.24c-1.75,0-3.38,0.24-5.06,0.48
			c-3.67,0.54-7.47,1.09-13.58-0.7h0c-4.43-1.3-8.62-4.65-10.66-8.53c-1.79-3.41-3.29-11.86,3.54-16.23
			c1.14-0.73,2.79-1.66,4.71-2.73c7.3-4.09,18.32-10.28,21.97-17.21l0.52-1c2.44-4.67,4.74-9.08,9.74-10.8
			c0.71-0.24,1.43-0.38,2.17-0.43c-0.13-0.75-0.27-1.5-0.43-2.25C227.24,111.51,226.41,111.68,225.59,111.96z"/>
	</g>
</g>
</svg>
