<?xml version="1.0" encoding="UTF-8" standalone="no"?>
<!-- Created with Inkscape (http://www.inkscape.org/) -->

<svg
   xmlns:dc="http://purl.org/dc/elements/1.1/"
   xmlns:cc="http://creativecommons.org/ns#"
   xmlns:rdf="http://www.w3.org/1999/02/22-rdf-syntax-ns#"
   xmlns:svg="http://www.w3.org/2000/svg"
   xmlns="http://www.w3.org/2000/svg"
   xmlns:sodipodi="http://sodipodi.sourceforge.net/DTD/sodipodi-0.dtd"
   xmlns:inkscape="http://www.inkscape.org/namespaces/inkscape"
   version="1.1"
   id="svg2"
   xml:space="preserve"
   width="566.93335"
   height="144.89333"
   viewBox="0 0 566.93335 144.89333"
   sodipodi:docname="hzg-logo.svg"
   inkscape:version="0.92.5 (2060ec1f9f, 2020-04-08)"><metadata
     id="metadata8"><rdf:RDF><cc:Work
         rdf:about=""><dc:format>image/svg+xml</dc:format><dc:type
           rdf:resource="http://purl.org/dc/dcmitype/StillImage" /><dc:title></dc:title></cc:Work></rdf:RDF></metadata><defs
     id="defs6" /><sodipodi:namedview
     pagecolor="#ffffff"
     bordercolor="#666666"
     borderopacity="1"
     objecttolerance="10"
     gridtolerance="10"
     guidetolerance="10"
     inkscape:pageopacity="0"
     inkscape:pageshadow="2"
     inkscape:window-width="640"
     inkscape:window-height="480"
     id="namedview4"
     showgrid="false"
     inkscape:zoom="0.64205078"
     inkscape:cx="283.46667"
     inkscape:cy="72.446663"
     inkscape:window-x="0"
     inkscape:window-y="0"
     inkscape:window-maximized="0"
     inkscape:current-layer="g10" /><g
     id="g10"
     inkscape:groupmode="layer"
     inkscape:label="ink_ext_XXXXXX"
     transform="matrix(1.3333333,0,0,-1.3333333,0,144.89333)"><g
       id="g12"
       transform="scale(0.1)"><path
         d="M 110.242,6.39844 C 103.52,2.87891 92.6406,0.640625 79.2031,0.640625 37.2852,0.640625 6.89063,34.5586 6.89063,107.836 c 0,85.113 42.23437,112.312 76.47267,112.312 12.7969,0 22.3987,-2.558 26.5587,-5.437 l -5.442,-20.805 c -5.1167,2.239 -10.2378,4.485 -21.437,4.485 -23.0391,0 -50.2344,-22.403 -50.2344,-88.321 0,-65.9098 24.3164,-87.6794 50.8711,-87.6794 9.2851,0 17.2813,2.25 22.4063,4.4883 l 4.156,-20.48046"
         style="fill:#ffffff;fill-opacity:1;fill-rule:nonzero;stroke:none"
         id="path14"
         inkscape:connector-curvature="0" /><path
         d="m 193.441,95.9961 c 0.325,30.7149 -11.195,44.4769 -23.035,44.4769 -16.32,0 -24.32,-23.364 -25.277,-44.4769 z M 144.805,77.7617 c 0,-47.6836 18.883,-57.6015 36.48,-57.6015 10.879,0 19.516,2.5586 25.594,5.7617 L 211.039,8 c -8.637,-4.48047 -21.758,-7.359375 -34.23,-7.359375 -37.121,0 -56.321,30.398475 -56.321,77.749975 0,49.9224 21.442,81.2814 52.477,81.2814 31.355,0 44.152,-33.281 44.152,-67.8322 0,-6.0898 -0.316,-10.25 -0.637,-14.0781 h -71.675"
         style="fill:#ffffff;fill-opacity:1;fill-rule:nonzero;stroke:none"
         id="path16"
         inkscape:connector-curvature="0" /><path
         d="m 243.688,117.434 c 0,18.242 -0.961,27.519 -1.282,40 h 21.438 l 1.277,-18.887 h 0.641 c 6.718,12.48 19.199,21.125 35.515,21.125 21.442,0 37.438,-15.688 37.438,-53.117 V 2.55859 H 314.082 V 102.07 c 0,18.567 -3.519,36.797 -21.441,36.797 -10.239,0 -20.161,-8.64 -23.036,-24.961 -0.96,-3.836 -1.281,-8.633 -1.281,-14.0701 V 2.55859 H 243.688 V 117.434"
         style="fill:#ffffff;fill-opacity:1;fill-rule:nonzero;stroke:none"
         id="path18"
         inkscape:connector-curvature="0" /><path
         d="m 401.445,193.586 v -36.152 h 29.754 V 138.867 H 401.445 V 46.7188 c 0,-20.168 7.035,-25.5977 15.996,-25.5977 4.161,0 7.36,0.3203 9.922,0.957 L 428.645,3.21094 C 424.16,1.60156 418.402,0.640625 410.398,0.640625 c -9.914,0 -18.55,2.570315 -24.312,9.281255 -6.398,7.03902 -9.277,17.59762 -9.277,39.03902 v 89.9061 h -18.883 v 18.567 h 18.883 v 26.23 l 24.636,9.922"
         style="fill:#ffffff;fill-opacity:1;fill-rule:nonzero;stroke:none"
         id="path20"
         inkscape:connector-curvature="0" /><path
         d="m 452.641,117.434 c 0,13.117 -0.957,28.476 -1.278,40 h 22.078 l 1.282,-24.637 h 0.636 c 5.121,14.715 18.239,26.875 32.637,26.875 1.922,0 3.524,0 5.125,-0.324 v -24.961 c -1.601,0 -3.203,0 -5.125,0 -15.676,0 -27.195,-14.395 -29.754,-31.992 -0.64,-4.1606 -0.961,-8.9653 -0.961,-14.0825 V 2.55859 h -24.64 V 117.434"
         style="fill:#ffffff;fill-opacity:1;fill-rule:nonzero;stroke:none"
         id="path22"
         inkscape:connector-curvature="0" /><path
         d="m 593.754,95.9961 c 0.324,30.7149 -11.195,44.4769 -23.035,44.4769 -16.321,0 -24.324,-23.364 -25.281,-44.4769 z M 545.117,77.7617 c 0,-47.6836 18.883,-57.6015 36.481,-57.6015 10.879,0 19.515,2.5586 25.593,5.7617 L 611.352,8 C 602.715,3.51953 589.594,0.640625 577.117,0.640625 540,0.640625 520.801,31.0391 520.801,78.3906 c 0,49.9224 21.441,81.2814 52.476,81.2814 31.356,0 44.157,-33.281 44.157,-67.8322 0,-6.0898 -0.321,-10.25 -0.641,-14.0781 h -71.676"
         style="fill:#ffffff;fill-opacity:1;fill-rule:nonzero;stroke:none"
         id="path24"
         inkscape:connector-curvature="0" /><path
         d="M 759.871,2.55859 V 138.867 h -19.516 v 18.567 h 19.516 v 9.277 c 0,16.953 2.563,33.918 13.762,46.719 8.961,9.914 21.441,13.117 31.039,13.117 8.316,0 14.719,-1.606 19.195,-3.84 l -3.84,-19.199 c -3.195,1.277 -7.355,2.558 -13.757,2.558 -17.598,0 -21.758,-18.878 -21.758,-38.718 v -9.914 h 28.16 v -18.567 h -28.16 V 2.55859 h -24.641"
         style="fill:#ffffff;fill-opacity:1;fill-rule:nonzero;stroke:none"
         id="path26"
         inkscape:connector-curvature="0" /><path
         d="m 844.672,79.9883 c 0,-25.5899 4.484,-60.4688 26.883,-60.4688 21.117,0 25.597,36.1602 25.597,60.4688 0,23.6877 -4.48,60.1597 -26.238,60.1597 -22.082,0 -26.242,-36.472 -26.242,-60.1597 z m 77.113,0 C 921.785,20.1602 894.273,0 870.273,0 c -27.835,0 -50.234,25.2813 -50.234,79.6797 0,56.3083 25.277,79.9923 51.836,79.9923 27.836,0 49.91,-25.918 49.91,-79.6837"
         style="fill:#ffffff;fill-opacity:1;fill-rule:nonzero;stroke:none"
         id="path28"
         inkscape:connector-curvature="0" /><path
         d="m 948.992,117.434 c 0,13.117 -0.957,28.476 -1.277,40 h 22.082 l 1.277,-24.637 h 0.641 c 5.117,14.715 18.234,26.875 32.635,26.875 1.92,0 3.52,0 5.12,-0.324 v -24.961 c -1.6,0 -3.2,0 -5.12,0 -15.678,0 -27.198,-14.395 -29.756,-31.992 -0.641,-4.1606 -0.961,-8.9653 -0.961,-14.0825 V 2.55859 H 948.992 V 117.434"
         style="fill:#ffffff;fill-opacity:1;fill-rule:nonzero;stroke:none"
         id="path30"
         inkscape:connector-curvature="0" /><path
         d="m 1264.24,95.3555 c -1.6,28.4725 -3.2,60.1565 -2.24,84.4685 h -1.28 c -4.8,-23.992 -10.56,-49.597 -17.28,-74.871 L 1217.21,3.83984 h -16 l -24.96,96.95316 c -7.36,27.52 -13.44,54.07 -17.92,79.031 h -0.96 c 0.32,-25.269 -1.28,-55.347 -2.56,-86.0701 l -4.16,-91.19531 h -22.08 l 12.8,215.66841 h 26.88 l 24.96,-98.555 c 7.36,-28.4806 12.8,-49.5939 17.27,-74.2306 h 0.97 c 4.16,24.6367 8.96,45.1172 16,74.2306 l 24.31,98.555 h 27.52 L 1291.76,2.55859 h -23.04 l -4.48,92.79691"
         style="fill:#ffffff;fill-opacity:1;fill-rule:nonzero;stroke:none"
         id="path32"
         inkscape:connector-curvature="0" /><path
         d="m 1381.04,82.8711 c -12.79,0 -42.55,-2.5625 -42.55,-36.1523 0,-20.4805 10.24,-27.5196 18.88,-27.5196 10.88,0 19.84,8 22.72,23.3594 0.64,2.8828 0.95,6.0703 0.95,8.9609 z m 24,-45.1094 c 0,-11.8398 0.33,-25.2812 1.61,-35.20311 h -22.08 l -1.61,16.32031 h -0.95 C 1375.29,7.03906 1364.41,0 1350.97,0 c -20.48,0 -36.48,17.2813 -36.48,44.1602 0,39.039 31.04,55.9958 65.92,56.3128 v 4.8 c 0,20.801 -5.44,34.875 -24.64,34.875 -9.6,0 -18.24,-2.878 -25.6,-8 l -5.44,17.278 c 6.72,4.804 20.8,10.246 36.16,10.246 31.03,0 44.15,-20.156 44.15,-54.719 V 37.7617"
         style="fill:#ffffff;fill-opacity:1;fill-rule:nonzero;stroke:none"
         id="path34"
         inkscape:connector-curvature="0" /><path
         d="m 1467.13,193.586 v -36.152 h 29.76 v -18.567 h -29.76 V 46.7188 c 0,-20.168 7.04,-25.5977 16,-25.5977 4.16,0 7.36,0.3203 9.92,0.957 l 1.28,-18.86716 c -4.48,-1.60938 -10.24,-2.570315 -18.24,-2.570315 -9.92,0 -18.56,2.570315 -24.32,9.281255 -6.39,7.03902 -9.27,17.59762 -9.27,39.03902 v 89.9061 h -18.89 v 18.567 h 18.89 v 26.23 l 24.63,9.922"
         style="fill:#ffffff;fill-opacity:1;fill-rule:nonzero;stroke:none"
         id="path36"
         inkscape:connector-curvature="0" /><path
         d="m 1582.01,95.9961 c 0.32,30.7149 -11.2,44.4769 -23.04,44.4769 -16.32,0 -24.32,-23.364 -25.28,-44.4769 z m -48.64,-18.2344 c 0,-47.6836 18.88,-57.6015 36.48,-57.6015 10.88,0 19.52,2.5586 25.59,5.7617 L 1599.6,8 c -8.63,-4.48047 -21.75,-7.359375 -34.23,-7.359375 -37.12,0 -56.32,30.398475 -56.32,77.749975 0,49.9224 21.44,81.2814 52.48,81.2814 31.36,0 44.15,-33.281 44.15,-67.8322 0,-6.0898 -0.31,-10.25 -0.64,-14.0781 h -71.67"
         style="fill:#ffffff;fill-opacity:1;fill-rule:nonzero;stroke:none"
         id="path38"
         inkscape:connector-curvature="0" /><path
         d="m 1631.93,117.434 c 0,13.117 -0.96,28.476 -1.28,40 h 22.08 l 1.28,-24.637 h 0.64 c 5.12,14.715 18.24,26.875 32.64,26.875 1.91,0 3.52,0 5.12,-0.324 v -24.961 c -1.6,0 -3.21,0 -5.12,0 -15.68,0 -27.2,-14.395 -29.76,-31.992 -0.64,-4.1606 -0.96,-8.9653 -0.96,-14.0825 V 2.55859 h -24.64 V 117.434"
         style="fill:#ffffff;fill-opacity:1;fill-rule:nonzero;stroke:none"
         id="path40"
         inkscape:connector-curvature="0" /><path
         d="M 1711.61,2.55859 V 157.434 h 24.64 V 2.55859 Z m 26.55,194.86741 c 0,-9.602 -5.76,-15.996 -15.03,-15.996 -8,0 -14.09,6.394 -14.09,15.996 0,9.597 6.4,16.004 14.4,16.004 8.96,0 14.72,-6.407 14.72,-16.004"
         style="fill:#ffffff;fill-opacity:1;fill-rule:nonzero;stroke:none"
         id="path42"
         inkscape:connector-curvature="0" /><path
         d="m 1828.08,82.8711 c -12.8,0 -42.56,-2.5625 -42.56,-36.1523 0,-20.4805 10.24,-27.5196 18.88,-27.5196 10.88,0 19.84,8 22.72,23.3594 0.64,2.8828 0.96,6.0703 0.96,8.9609 z m 24,-45.1094 c 0,-11.8398 0.32,-25.2812 1.6,-35.20311 H 1831.6 L 1830,18.8789 h -0.96 C 1822.32,7.03906 1811.44,0 1798,0 c -20.48,0 -36.48,17.2813 -36.48,44.1602 0,39.039 31.04,55.9958 65.92,56.3128 v 4.8 c 0,20.801 -5.44,34.875 -24.64,34.875 -9.6,0 -18.24,-2.878 -25.6,-8 l -5.44,17.278 c 6.72,4.804 20.8,10.246 36.16,10.246 31.04,0 44.16,-20.156 44.16,-54.719 V 37.7617"
         style="fill:#ffffff;fill-opacity:1;fill-rule:nonzero;stroke:none"
         id="path44"
         inkscape:connector-curvature="0" /><path
         d="m 1886.96,223.984 h 24.64 V 2.55859 h -24.64 V 223.984"
         style="fill:#ffffff;fill-opacity:1;fill-rule:nonzero;stroke:none"
         id="path46"
         inkscape:connector-curvature="0" /><path
         d="m 1943.92,28.1602 c 5.44,-3.5196 15.04,-8 24.96,-8 13.76,0 22.72,8.6406 22.72,22.3984 0,11.8398 -4.16,19.832 -19.84,30.3906 -20.16,12.8008 -31.04,26.2422 -31.04,43.8398 0,25.281 18.56,42.883 42.56,42.883 12.15,0 21.11,-4.16 27.52,-8 l -6.41,-18.567 c -6.07,4.165 -12.48,7.043 -20.79,7.043 -13.12,0 -19.84,-9.597 -19.84,-19.835 0,-10.243 3.84,-16.004 19.2,-26.5591 17.91,-11.5156 32,-25.5937 32,-47.0351 0,-31.0391 -21.12,-46.078175 -46.72,-46.078175 -11.2,0 -23.68,3.519535 -30.4,8.960935 l 6.08,18.55864"
         style="fill:#ffffff;fill-opacity:1;fill-rule:nonzero;stroke:none"
         id="path48"
         inkscape:connector-curvature="0" /><path
         d="m 2199.82,82.8711 c -12.79,0 -42.55,-2.5625 -42.55,-36.1523 0,-20.4805 10.24,-27.5196 18.88,-27.5196 10.88,0 19.84,8 22.72,23.3594 0.64,2.8828 0.95,6.0703 0.95,8.9609 z m 24.01,-45.1094 c 0,-11.8398 0.31,-25.2812 1.6,-35.20311 h -22.09 l -1.6,16.32031 h -0.96 C 2194.06,7.03906 2183.18,0 2169.75,0 c -20.48,0 -36.48,17.2813 -36.48,44.1602 0,39.039 31.04,55.9958 65.91,56.3128 v 4.8 c 0,20.801 -5.43,34.875 -24.63,34.875 -9.61,0 -18.24,-2.878 -25.6,-8 l -5.43,17.278 c 6.71,4.804 20.79,10.246 36.15,10.246 31.03,0 44.16,-20.156 44.16,-54.719 V 37.7617"
         style="fill:#ffffff;fill-opacity:1;fill-rule:nonzero;stroke:none"
         id="path50"
         inkscape:connector-curvature="0" /><path
         d="m 2258.71,117.434 c 0,18.234 -0.96,27.519 -1.28,40 h 21.44 l 1.28,-18.887 h 0.63 c 6.72,12.48 19.2,21.125 35.53,21.125 21.42,0 37.44,-15.688 37.44,-53.117 V 2.55859 H 2329.1 V 102.07 c 0,18.567 -3.51,36.797 -21.43,36.797 -10.25,0 -20.17,-8.64 -23.04,-24.961 -0.96,-3.836 -1.28,-8.633 -1.28,-14.0701 V 2.55859 h -24.64 V 117.434"
         style="fill:#ffffff;fill-opacity:1;fill-rule:nonzero;stroke:none"
         id="path52"
         inkscape:connector-curvature="0" /><path
         d="m 2457.11,98.2344 c 0,3.2036 0,7.0386 -0.33,10.2346 -1.6,16.316 -11.19,30.078 -23.03,30.078 -20.49,0 -27.52,-28.477 -27.52,-59.1876 0,-32.6406 8.32,-58.8789 26.23,-58.8789 7.68,0 18.24,4.1601 23.69,26.5508 0.63,2.8789 0.96,6.4101 0.96,10.25 z m 24.32,125.7496 V 39.6797 c 0,-10.5586 0.95,-28.1602 1.27,-37.12111 h -21.12 l -1.6,19.20311 h -0.96 C 2453.91,10.8789 2443.03,0 2426.39,0 c -25.92,0 -44.81,28.1602 -44.81,79.3594 0,54.7146 22.74,80.3126 46.41,80.3126 11.52,0 22.4,-5.117 28.47,-18.242 h 0.65 v 82.554 h 24.32"
         style="fill:#ffffff;fill-opacity:1;fill-rule:nonzero;stroke:none"
         id="path54"
         inkscape:connector-curvature="0" /><path
         d="m 2705.27,6.39844 c -6.72,-3.51953 -17.59,-5.757815 -31.03,-5.757815 -41.94,0 -72.33,33.917975 -72.33,107.195375 0,85.113 42.25,112.312 76.47,112.312 12.81,0 22.4,-2.57 26.56,-5.437 l -5.43,-20.805 c -5.12,2.239 -10.23,4.485 -21.44,4.485 -23.03,0 -50.24,-22.403 -50.24,-88.321 0,-65.9098 24.32,-87.6794 50.88,-87.6794 9.28,0 17.29,2.25 22.4,4.4883 l 4.16,-20.48046"
         style="fill:#ffffff;fill-opacity:1;fill-rule:nonzero;stroke:none"
         id="path56"
         inkscape:connector-curvature="0" /><path
         d="m 2740.47,79.9883 c 0,-25.5899 4.47,-60.4688 26.87,-60.4688 21.12,0 25.61,36.1602 25.61,60.4688 0,23.6877 -4.49,60.1597 -26.25,60.1597 -22.07,0 -26.23,-36.472 -26.23,-60.1597 z m 77.11,0 C 2817.58,20.1602 2790.06,0 2766.05,0 c -27.83,0 -50.23,25.2813 -50.23,79.6797 0,56.3083 25.29,79.9923 51.84,79.9923 27.85,0 49.92,-25.918 49.92,-79.6837"
         style="fill:#ffffff;fill-opacity:1;fill-rule:nonzero;stroke:none"
         id="path58"
         inkscape:connector-curvature="0" /><path
         d="m 2902.7,82.8711 c -12.8,0 -42.56,-2.5625 -42.56,-36.1523 0,-20.4805 10.25,-27.5196 18.88,-27.5196 10.88,0 19.85,8 22.72,23.3594 0.64,2.8828 0.96,6.0703 0.96,8.9609 z m 24,-45.1094 c 0,-11.8398 0.31,-25.2812 1.6,-35.20311 h -22.07 l -1.6,16.32031 h -0.98 C 2896.93,7.03906 2886.05,0 2872.62,0 c -20.47,0 -36.47,17.2813 -36.47,44.1602 0,39.039 31.04,55.9958 65.92,56.3128 v 4.8 c 0,20.801 -5.45,34.875 -24.65,34.875 -9.59,0 -18.24,-2.878 -25.6,-8 l -5.43,17.278 c 6.72,4.804 20.8,10.246 36.15,10.246 31.03,0 44.16,-20.156 44.16,-54.719 V 37.7617"
         style="fill:#ffffff;fill-opacity:1;fill-rule:nonzero;stroke:none"
         id="path60"
         inkscape:connector-curvature="0" /><path
         d="m 2957.42,28.1602 c 5.45,-3.5196 15.04,-8 24.96,-8 13.77,0 22.72,8.6406 22.72,22.3984 0,11.8398 -4.14,19.832 -19.83,30.3906 -20.15,12.8008 -31.03,26.2422 -31.03,43.8398 0,25.281 18.55,42.883 42.56,42.883 12.15,0 21.11,-4.16 27.5,-8 l -6.39,-18.567 c -6.07,4.165 -12.48,7.043 -20.8,7.043 -13.13,0 -19.84,-9.597 -19.84,-19.835 0,-10.243 3.84,-16.004 19.19,-26.5591 17.93,-11.5156 32,-25.5937 32,-47.0351 0,-31.0391 -21.12,-46.078175 -46.7,-46.078175 -11.21,0 -23.69,3.519535 -30.41,8.960935 l 6.07,18.55864"
         style="fill:#ffffff;fill-opacity:1;fill-rule:nonzero;stroke:none"
         id="path62"
         inkscape:connector-curvature="0" /><path
         d="m 3084.14,193.586 v -36.152 h 29.77 v -18.567 h -29.77 V 46.7188 c 0,-20.168 7.05,-25.5977 16.02,-25.5977 4.16,0 7.34,0.3203 9.9,0.957 l 1.29,-18.86716 c -4.47,-1.60938 -10.24,-2.570315 -18.24,-2.570315 -9.93,0 -18.56,2.570315 -24.32,9.281255 -6.41,7.03902 -9.28,17.59762 -9.28,39.03902 v 89.9061 h -18.88 v 18.567 h 18.88 v 26.23 l 24.63,9.922"
         style="fill:#ffffff;fill-opacity:1;fill-rule:nonzero;stroke:none"
         id="path64"
         inkscape:connector-curvature="0" /><path
         d="m 3193.26,82.8711 c -12.79,0 -42.56,-2.5625 -42.56,-36.1523 0,-20.4805 10.26,-27.5196 18.89,-27.5196 10.88,0 19.84,8 22.71,23.3594 0.65,2.8828 0.96,6.0703 0.96,8.9609 z m 24.01,-45.1094 c 0,-11.8398 0.31,-25.2812 1.6,-35.20311 h -22.07 l -1.6,16.32031 h -0.98 C 3187.5,7.03906 3176.62,0 3163.18,0 c -20.47,0 -36.46,17.2813 -36.46,44.1602 0,39.039 31.03,55.9958 65.92,56.3128 v 4.8 c 0,20.801 -5.45,34.875 -24.65,34.875 -9.59,0 -18.24,-2.878 -25.61,-8 l -5.43,17.278 c 6.72,4.804 20.8,10.246 36.16,10.246 31.03,0 44.16,-20.156 44.16,-54.719 V 37.7617"
         style="fill:#ffffff;fill-opacity:1;fill-rule:nonzero;stroke:none"
         id="path66"
         inkscape:connector-curvature="0" /><path
         d="m 3252.15,223.984 h 24.65 V 2.55859 h -24.65 V 223.984"
         style="fill:#ffffff;fill-opacity:1;fill-rule:nonzero;stroke:none"
         id="path68"
         inkscape:connector-curvature="0" /><path
         d="m 3432.93,115.512 h 10.55 c 23.36,0 39.04,17.285 39.04,43.203 0,24.949 -10.23,40.308 -36.48,40.633 -5.12,0 -9.91,-0.325 -13.11,-1.282 z m -24.32,99.508 c 10.24,2.882 23.03,4.164 35.2,4.164 21.42,0 37.42,-4.473 48.63,-15.356 10.57,-10.879 15.04,-25.281 15.04,-42.234 0,-27.52 -12.79,-45.442 -34.55,-55.684 v -0.637 c 16,-4.8 24.32,-20.1519 28.79,-48.3121 5.12,-29.4414 9.28,-47.67965 12.48,-54.40231 h -24.96 c -3.2,6.40235 -7.36,26.88281 -11.53,53.12111 -4.78,29.75 -14.08,40.6328 -35.19,40.6328 h -9.59 V 2.55859 h -24.32 V 215.02"
         style="fill:#ffffff;fill-opacity:1;fill-rule:nonzero;stroke:none"
         id="path70"
         inkscape:connector-curvature="0" /><path
         d="m 3603.16,95.9961 c 0.32,30.7149 -11.21,44.4769 -23.04,44.4769 -16.31,0 -24.32,-23.364 -25.28,-44.4769 z m -48.63,-18.2344 c 0,-47.6836 18.87,-57.6015 36.47,-57.6015 10.88,0 19.53,2.5586 25.6,5.7617 L 3620.76,8 c -8.65,-4.48047 -21.76,-7.359375 -34.24,-7.359375 -37.13,0 -56.32,30.398475 -56.32,77.749975 0,49.9224 21.44,81.2814 52.48,81.2814 31.36,0 44.16,-33.281 44.16,-67.8322 0,-6.0898 -0.32,-10.25 -0.65,-14.0781 h -71.66"
         style="fill:#ffffff;fill-opacity:1;fill-rule:nonzero;stroke:none"
         id="path72"
         inkscape:connector-curvature="0" /><path
         d="m 3649.24,28.1602 c 5.43,-3.5196 15.04,-8 24.96,-8 13.75,0 22.71,8.6406 22.71,22.3984 0,11.8398 -4.16,19.832 -19.84,30.3906 -20.16,12.8008 -31.03,26.2422 -31.03,43.8398 0,25.281 18.55,42.883 42.55,42.883 12.17,0 21.12,-4.16 27.52,-8 l -6.4,-18.567 c -6.08,4.165 -12.48,7.043 -20.8,7.043 -13.11,0 -19.83,-9.597 -19.83,-19.835 0,-10.243 3.83,-16.004 19.2,-26.5591 17.91,-11.5156 31.99,-25.5937 31.99,-47.0351 0,-31.0391 -21.11,-46.078175 -46.72,-46.078175 -11.19,0 -23.67,3.519535 -30.39,8.960935 l 6.08,18.55864"
         style="fill:#ffffff;fill-opacity:1;fill-rule:nonzero;stroke:none"
         id="path74"
         inkscape:connector-curvature="0" /><path
         d="m 3811.8,95.9961 c 0.31,30.7149 -11.21,44.4769 -23.05,44.4769 -16.31,0 -24.32,-23.364 -25.27,-44.4769 z m -48.64,-18.2344 c 0,-47.6836 18.87,-57.6015 36.47,-57.6015 10.88,0 19.53,2.5586 25.6,5.7617 L 3829.39,8 c -8.65,-4.48047 -21.75,-7.359375 -34.23,-7.359375 -37.13,0 -56.33,30.398475 -56.33,77.749975 0,49.9224 21.44,81.2814 52.48,81.2814 31.37,0 44.16,-33.281 44.16,-67.8322 0,-6.0898 -0.31,-10.25 -0.65,-14.0781 h -71.66"
         style="fill:#ffffff;fill-opacity:1;fill-rule:nonzero;stroke:none"
         id="path76"
         inkscape:connector-curvature="0" /><path
         d="m 3919.63,82.8711 c -12.79,0 -42.56,-2.5625 -42.56,-36.1523 0,-20.4805 10.23,-27.5196 18.87,-27.5196 10.9,0 19.84,8 22.73,23.3594 0.63,2.8828 0.96,6.0703 0.96,8.9609 z m 24,-45.1094 c 0,-11.8398 0.32,-25.2812 1.58,-35.20311 h -22.07 l -1.6,16.32031 h -0.95 C 3913.87,7.03906 3902.99,0 3889.55,0 c -20.49,0 -36.48,17.2813 -36.48,44.1602 0,39.039 31.03,55.9958 65.91,56.3128 v 4.8 c 0,20.801 -5.43,34.875 -24.62,34.875 -9.61,0 -18.25,-2.878 -25.61,-8 l -5.45,17.278 c 6.72,4.804 20.8,10.246 36.17,10.246 31.04,0 44.16,-20.156 44.16,-54.719 V 37.7617"
         style="fill:#ffffff;fill-opacity:1;fill-rule:nonzero;stroke:none"
         id="path78"
         inkscape:connector-curvature="0" /><path
         d="m 3978.2,117.434 c 0,13.117 -0.97,28.476 -1.29,40 h 22.07 l 1.29,-24.637 h 0.65 c 5.12,14.715 18.24,26.875 32.63,26.875 1.92,0 3.52,0 5.12,-0.324 v -24.961 c -1.6,0 -3.2,0 -5.12,0 -15.68,0 -27.2,-14.395 -29.76,-31.992 -0.65,-4.1606 -0.96,-8.9653 -0.96,-14.0825 V 2.55859 H 3978.2 V 117.434"
         style="fill:#ffffff;fill-opacity:1;fill-rule:nonzero;stroke:none"
         id="path80"
         inkscape:connector-curvature="0" /><path
         d="m 4128.91,6.39844 c -5.43,-3.1875 -14.71,-5.757815 -25.59,-5.757815 -33.93,0 -56.64,27.191375 -56.64,78.398475 0,44.4689 22.4,80.6329 61.11,80.6329 8.32,0 17.29,-2.238 21.76,-4.809 l -4.8,-20.152 c -3.21,1.602 -9.59,4.156 -17.6,4.156 -24.96,0 -35.84,-29.429 -35.84,-59.8279 0,-36.168 13.77,-57.918 36.48,-57.918 6.41,0 12.17,1.2695 17.6,4.1602 l 3.52,-18.88286"
         style="fill:#ffffff;fill-opacity:1;fill-rule:nonzero;stroke:none"
         id="path82"
         inkscape:connector-curvature="0" /><path
         d="m 4150.04,223.984 h 24.63 v -83.511 h 0.64 c 3.21,5.437 8.01,10.23 13.13,13.757 5.43,3.516 11.83,5.442 20.47,5.442 19.53,0 36.17,-15.363 36.17,-54.399 V 2.55859 h -24.65 V 102.395 c 0,18.875 -4.16,36.472 -20.8,36.472 -11.52,0 -20.16,-8.316 -23.99,-24.637 -0.64,-3.195 -0.97,-7.675 -0.97,-11.511 V 2.55859 h -24.63 V 223.984"
         style="fill:#ffffff;fill-opacity:1;fill-rule:nonzero;stroke:none"
         id="path84"
         inkscape:connector-curvature="0" /><path
         d="M 1001.32,1069.29 V 963.629 h 111.53 v 105.661 h 48.14 V 805.52 h -48.14 V 921.75 H 1001.32 V 805.52 h -48.14 v 263.77 h 48.14"
         style="fill:#ffffff;fill-opacity:1;fill-rule:nonzero;stroke:none"
         id="path86"
         inkscape:connector-curvature="0" /><path
         d="m 1331.99,920.98 c 0.39,17.606 -7.44,46.555 -39.53,46.555 -29.75,0 -42.27,-26.996 -44.23,-46.555 z m -83.76,-33.664 c 1.17,-34.441 28.18,-49.316 58.71,-49.316 22.3,0 38.35,3.141 52.84,8.605 l 7.03,-33.25 c -16.42,-6.648 -39.12,-12.14 -66.52,-12.14 -61.84,0 -98.23,38.351 -98.23,96.664 0,52.836 32.09,102.541 93.14,102.541 62.23,0 82.18,-50.877 82.18,-92.752 0,-9.004 -0.78,-16.055 -1.57,-20.352 h -127.58"
         style="fill:#ffffff;fill-opacity:1;fill-rule:nonzero;stroke:none"
         id="path88"
         inkscape:connector-curvature="0" /><path
         d="m 1416.1,1083.39 h 48.53 V 805.52 h -48.53 v 277.87"
         style="fill:#ffffff;fill-opacity:1;fill-rule:nonzero;stroke:none"
         id="path90"
         inkscape:connector-curvature="0" /><path
         d="m 1516.67,939.371 c 0,21.91 -0.4,40.305 -1.57,56.742 h 41.49 l 1.95,-28.179 h 1.18 c 9.39,14.871 26.61,32.486 58.7,32.486 25.05,0 44.61,-14.096 52.83,-35.232 h 0.78 c 6.66,10.578 14.49,18.41 23.48,23.882 10.57,7.438 22.71,11.35 38.36,11.35 31.7,0 63.79,-21.529 63.79,-82.576 V 805.52 h -46.96 v 105.277 c 0,31.695 -10.96,50.484 -34.04,50.484 -16.45,0 -28.58,-11.738 -33.67,-25.449 -1.16,-4.684 -2.34,-10.559 -2.34,-16.035 V 805.52 h -46.97 v 110.363 c 0,26.609 -10.56,45.398 -32.87,45.398 -18,0 -30.14,-14.093 -34.44,-27.398 -1.96,-4.695 -2.74,-10.168 -2.74,-15.653 V 805.52 h -46.96 v 133.851"
         style="fill:#ffffff;fill-opacity:1;fill-rule:nonzero;stroke:none"
         id="path92"
         inkscape:connector-curvature="0" /><path
         d="m 1848.5,1083.39 h 48.53 V 969.891 h 0.78 c 5.87,9 14.09,16.832 23.87,21.91 9.4,5.48 20.75,8.619 32.88,8.619 32.49,0 66.53,-21.529 66.53,-82.576 V 805.52 h -48.14 v 106.843 c 0,27.782 -10.17,48.524 -36.78,48.524 -18.78,0 -32.09,-12.52 -37.18,-27.004 -1.57,-3.914 -1.96,-9.004 -1.96,-14.465 V 805.52 h -48.53 v 277.87"
         style="fill:#ffffff;fill-opacity:1;fill-rule:nonzero;stroke:none"
         id="path94"
         inkscape:connector-curvature="0" /><path
         d="m 2109.9,900.613 c 0,-36.789 18,-64.562 47.35,-64.562 27.4,0 46.59,26.992 46.59,65.347 0,29.75 -13.32,63.79 -46.19,63.79 -34.04,0 -47.75,-32.872 -47.75,-64.575 z m 143.63,1.957 c 0,-70.039 -49.31,-101.355 -97.83,-101.355 -54.02,0 -95.5,37.195 -95.5,98.23 0,62.621 41.09,100.975 98.62,100.975 56.76,0 94.71,-39.92 94.71,-97.85"
         style="fill:#ffffff;fill-opacity:1;fill-rule:nonzero;stroke:none"
         id="path96"
         inkscape:connector-curvature="0" /><path
         d="m 2293.03,1083.39 h 48.53 V 805.52 h -48.53 v 277.87"
         style="fill:#ffffff;fill-opacity:1;fill-rule:nonzero;stroke:none"
         id="path98"
         inkscape:connector-curvature="0" /><path
         d="m 2448.78,1045.03 v -48.917 h 45.8 v -36.011 h -45.8 v -84.129 c 0,-23.098 6.26,-35.235 24.65,-35.235 9.02,0 13.32,0.785 18.8,2.352 l 0.78,-36.785 c -7.05,-2.739 -19.58,-5.09 -34.83,-5.09 -17.61,0 -32.48,6.262 -41.49,16.039 -10.16,10.957 -14.85,28.184 -14.85,53.23 v 89.618 h -27.43 v 36.011 h 27.43 v 35.227 l 46.94,13.69"
         style="fill:#ffffff;fill-opacity:1;fill-rule:nonzero;stroke:none"
         id="path100"
         inkscape:connector-curvature="0" /><path
         d="m 2512.95,833.313 71.62,91.566 c 9.79,11.738 18,21.141 28.16,32.101 v 0.786 H 2520 v 38.347 h 151.44 V 966.75 l -70.03,-89.609 c -9.41,-11.36 -18.4,-22.317 -28.19,-32.485 v -0.781 h 100.57 V 805.52 h -160.84 v 27.793"
         style="fill:#ffffff;fill-opacity:1;fill-rule:nonzero;stroke:none"
         id="path102"
         inkscape:connector-curvature="0" /><path
         d="M 2792.75,926.441 V 893.18 h -99.8 v 33.261 h 99.8"
         style="fill:#ffffff;fill-opacity:1;fill-rule:nonzero;stroke:none"
         id="path104"
         inkscape:connector-curvature="0" /><path
         d="m 2814.65,832.133 135.02,196.077 v 1.17 h -122.89 v 39.91 h 185.5 v -28.18 L 2879.23,847.016 v -1.578 h 135.02 V 805.52 h -199.6 v 26.613"
         style="fill:#ffffff;fill-opacity:1;fill-rule:nonzero;stroke:none"
         id="path106"
         inkscape:connector-curvature="0" /><path
         d="m 3165.27,920.98 c 0.39,17.606 -7.45,46.555 -39.53,46.555 -29.74,0 -42.25,-26.996 -44.21,-46.555 z m -83.74,-33.664 c 1.17,-34.441 28.18,-49.316 58.7,-49.316 22.29,0 38.33,3.141 52.82,8.605 l 7.08,-33.25 c -16.45,-6.648 -39.16,-12.14 -66.56,-12.14 -61.82,0 -98.24,38.351 -98.24,96.664 0,52.836 32.11,102.541 93.15,102.541 62.23,0 82.17,-50.877 82.17,-92.752 0,-9.004 -0.76,-16.055 -1.53,-20.352 h -127.59"
         style="fill:#ffffff;fill-opacity:1;fill-rule:nonzero;stroke:none"
         id="path108"
         inkscape:connector-curvature="0" /><path
         d="m 3249.38,939.371 c 0,21.91 -0.4,40.305 -1.56,56.742 h 42.28 l 2.34,-28.578 h 1.17 c 8.23,14.879 28.97,32.885 60.65,32.885 33.27,0 67.72,-21.529 67.72,-81.795 V 805.52 h -48.13 v 107.625 c 0,27.394 -10.18,48.136 -36.43,48.136 -19.16,0 -32.44,-13.695 -37.54,-28.179 -1.57,-4.305 -1.97,-10.168 -1.97,-15.661 V 805.52 h -48.53 v 133.851"
         style="fill:#ffffff;fill-opacity:1;fill-rule:nonzero;stroke:none"
         id="path110"
         inkscape:connector-curvature="0" /><path
         d="m 3526.84,1045.03 v -48.917 h 45.79 v -36.011 h -45.79 v -84.129 c 0,-23.098 6.28,-35.235 24.67,-35.235 8.97,0 13.31,0.785 18.78,2.352 l 0.77,-36.785 c -7.03,-2.739 -19.55,-5.09 -34.82,-5.09 -17.6,0 -32.49,6.262 -41.49,16.039 -10.17,10.957 -14.87,28.184 -14.87,53.23 v 89.618 h -27.38 v 36.011 h 27.38 v 35.227 l 46.96,13.69"
         style="fill:#ffffff;fill-opacity:1;fill-rule:nonzero;stroke:none"
         id="path112"
         inkscape:connector-curvature="0" /><path
         d="m 3609.02,934.664 c 0,25.836 -0.41,44.227 -1.57,61.449 h 41.86 l 1.56,-36.394 h 1.57 c 9.4,27.004 31.72,40.701 52.05,40.701 4.72,0 7.44,-0.4 11.35,-1.186 v -45.39 c -3.91,0.781 -8.2,1.566 -14.07,1.566 -23.11,0 -38.76,-14.871 -43.06,-36.394 -0.77,-4.301 -1.57,-9.395 -1.57,-14.883 V 805.52 h -48.12 v 129.144"
         style="fill:#ffffff;fill-opacity:1;fill-rule:nonzero;stroke:none"
         id="path114"
         inkscape:connector-curvature="0" /><path
         d="m 3918.96,862.656 c 0,-22.699 0.76,-41.476 1.55,-57.136 h -42.25 l -2.36,28.96 h -0.76 c -8.26,-13.687 -27.02,-33.265 -61.08,-33.265 -34.82,0 -66.53,20.746 -66.53,82.969 v 111.929 h 48.15 V 892.398 c 0,-31.703 10.17,-52.043 35.6,-52.043 19.17,0 31.71,13.684 36.79,25.825 1.56,4.304 2.75,9.398 2.75,14.879 v 115.054 h 48.14 V 862.656"
         style="fill:#ffffff;fill-opacity:1;fill-rule:nonzero;stroke:none"
         id="path116"
         inkscape:connector-curvature="0" /><path
         d="m 3970.99,939.371 c 0,21.91 -0.39,40.305 -1.57,56.742 h 41.48 l 1.94,-28.179 h 1.19 c 9.38,14.871 26.6,32.486 58.71,32.486 25.04,0 44.59,-14.096 52.84,-35.232 h 0.77 c 6.65,10.578 14.46,18.41 23.47,23.882 10.57,7.438 22.7,11.35 38.35,11.35 31.72,0 63.8,-21.529 63.8,-82.576 V 805.52 h -46.96 v 105.277 c 0,31.695 -10.98,50.484 -34.06,50.484 -16.43,0 -28.57,-11.738 -33.64,-25.449 -1.17,-4.684 -2.36,-10.559 -2.36,-16.035 V 805.52 h -46.96 v 110.363 c 0,26.609 -10.58,45.398 -32.86,45.398 -18.01,0 -30.16,-14.093 -34.46,-27.398 -1.96,-4.695 -2.73,-10.168 -2.73,-15.653 V 805.52 h -46.95 v 133.851"
         style="fill:#ffffff;fill-opacity:1;fill-rule:nonzero;stroke:none"
         id="path118"
         inkscape:connector-curvature="0" /><path
         d="m 1164.52,442.258 c -16.83,-6.262 -49.71,-14.871 -84.94,-14.871 -44.6,0 -78.26,11.343 -103.307,35.222 -23.484,22.305 -37.175,57.121 -36.785,97.063 0,83.348 59.481,136.957 146.752,136.957 32.49,0 57.92,-6.652 70.06,-12.516 l -10.58,-38.738 c -14.47,6.25 -32.09,11.348 -59.87,11.348 -56.35,0 -95.877,-33.262 -95.877,-94.707 0,-59.883 36.777,-95.493 91.567,-95.493 17.22,0 30.14,2.336 36.4,5.461 v 65.75 h -46.57 v 37.969 h 93.15 V 442.258"
         style="fill:#ffffff;fill-opacity:1;fill-rule:nonzero;stroke:none"
         id="path120"
         inkscape:connector-curvature="0" /><path
         d="m 1331.98,545.566 c 0.39,17.61 -7.44,46.567 -39.53,46.567 -29.74,0 -42.26,-26.992 -44.23,-46.567 z m -83.76,-33.648 c 1.18,-34.445 28.19,-49.309 58.71,-49.309 22.31,0 38.35,3.125 52.84,8.594 l 7.04,-33.254 c -16.43,-6.656 -39.13,-12.129 -66.53,-12.129 -61.83,0 -98.23,38.352 -98.23,96.66 0,52.833 32.1,102.524 93.14,102.524 62.23,0 82.19,-50.883 82.19,-92.734 0,-8.997 -0.79,-16.055 -1.57,-20.352 h -127.59"
         style="fill:#ffffff;fill-opacity:1;fill-rule:nonzero;stroke:none"
         id="path122"
         inkscape:connector-curvature="0" /><path
         d="m 1533.9,545.566 c 0.39,17.61 -7.44,46.567 -39.53,46.567 -29.74,0 -42.26,-26.992 -44.22,-46.567 z m -83.75,-33.648 c 1.18,-34.445 28.18,-49.309 58.7,-49.309 22.31,0 38.36,3.125 52.83,8.594 l 7.05,-33.254 c -16.44,-6.656 -39.13,-12.129 -66.53,-12.129 -61.84,0 -98.23,38.352 -98.23,96.66 0,52.833 32.08,102.524 93.14,102.524 62.23,0 82.19,-50.883 82.19,-92.734 0,-8.997 -0.79,-16.055 -1.57,-20.352 h -127.58"
         style="fill:#ffffff;fill-opacity:1;fill-rule:nonzero;stroke:none"
         id="path124"
         inkscape:connector-curvature="0" /><path
         d="m 1615.66,474.34 c 10.97,-6.652 31.71,-13.684 48.92,-13.684 21.14,0 30.53,8.606 30.53,21.114 0,12.929 -7.82,19.57 -31.3,27.793 -37.18,12.917 -52.84,33.273 -52.45,55.578 0,33.652 27.79,59.863 72.01,59.863 21.13,0 39.53,-5.473 50.48,-11.328 l -9.39,-34.067 c -8.21,4.707 -23.47,10.957 -40.3,10.957 -17.23,0 -26.62,-8.218 -26.62,-19.949 0,-12.129 9,-18 33.27,-26.621 34.44,-12.512 50.48,-30.129 50.87,-58.301 0,-34.433 -27,-59.875 -77.48,-59.875 -23.1,0 -43.84,5.871 -57.93,13.672 l 9.39,34.848"
         style="fill:#ffffff;fill-opacity:1;fill-rule:nonzero;stroke:none"
         id="path126"
         inkscape:connector-curvature="0" /><path
         d="m 1836.37,669.633 v -48.93 h 45.8 v -35.992 h -45.8 v -84.152 c 0,-23.086 6.26,-35.215 24.66,-35.215 9,0 13.3,0.781 18.78,2.344 l 0.79,-36.778 c -7.05,-2.734 -19.57,-5.09 -34.83,-5.09 -17.62,0 -32.48,6.25 -41.49,16.028 -10.17,10.957 -14.87,28.195 -14.87,53.242 v 89.621 h -27.39 v 35.992 h 27.39 v 35.219 l 46.96,13.711"
         style="fill:#ffffff;fill-opacity:1;fill-rule:nonzero;stroke:none"
         id="path128"
         inkscape:connector-curvature="0" /><path
         d="m 1918.54,707.98 h 48.53 V 594.492 h 0.78 c 5.88,9.008 14.1,16.828 23.87,21.906 9.4,5.489 20.75,8.606 32.88,8.606 32.49,0 66.53,-21.504 66.53,-82.563 V 430.117 h -48.14 v 106.836 c 0,27.793 -10.18,48.535 -36.79,48.535 -18.78,0 -32.08,-12.515 -37.17,-27 -1.57,-3.925 -1.96,-9.011 -1.96,-14.492 V 430.117 h -48.53 V 707.98"
         style="fill:#ffffff;fill-opacity:1;fill-rule:nonzero;stroke:none"
         id="path130"
         inkscape:connector-curvature="0" /><path
         d="m 2243.34,523.273 c -34.04,0.774 -66.52,-6.668 -66.52,-35.625 0,-18.789 12.13,-27.402 27.39,-27.402 19.18,0 33.26,12.527 37.59,26.231 1.16,3.527 1.54,7.441 1.54,10.566 z m 46.97,-47.363 c 0,-17.219 0.78,-34.062 2.74,-45.793 h -43.45 l -3.13,21.145 h -1.17 c -11.74,-14.883 -31.71,-25.442 -56.35,-25.442 -38.35,0 -59.88,27.766 -59.88,56.743 0,48.132 42.66,72.402 113.11,72 v 3.144 c 0,12.52 -5.1,33.262 -38.75,33.262 -18.78,0 -38.36,-5.867 -51.26,-14.09 l -9.41,31.309 c 14.11,8.613 38.74,16.816 68.89,16.816 61.05,0 78.66,-38.734 78.66,-80.227 V 475.91"
         style="fill:#ffffff;fill-opacity:1;fill-rule:nonzero;stroke:none"
         id="path132"
         inkscape:connector-curvature="0" /><path
         d="m 2481.29,435.996 c -10.22,-4.703 -30.16,-10.176 -54.02,-10.176 -59.49,0 -98.23,38.352 -98.23,97.453 0,57.129 39.13,101.731 106.05,101.731 17.61,0 35.6,-3.891 46.57,-8.984 l -8.61,-36.008 c -7.84,3.515 -19.18,7.429 -36.4,7.429 -36.8,0 -58.71,-27.007 -58.32,-61.836 0,-39.128 25.46,-61.433 58.32,-61.433 16.84,0 28.56,3.516 37.96,7.441 l 6.68,-35.617"
         style="fill:#ffffff;fill-opacity:1;fill-rule:nonzero;stroke:none"
         id="path134"
         inkscape:connector-curvature="0" /><path
         d="m 2516.88,707.98 h 48.51 V 594.492 h 0.79 c 5.87,9.008 14.08,16.828 23.86,21.906 9.39,5.489 20.74,8.606 32.89,8.606 32.48,0 66.5,-21.504 66.5,-82.563 V 430.117 h -48.12 v 106.836 c 0,27.793 -10.18,48.535 -36.79,48.535 -18.77,0 -32.09,-12.515 -37.16,-27 -1.57,-3.925 -1.97,-9.011 -1.97,-14.492 V 430.117 h -48.51 V 707.98"
         style="fill:#ffffff;fill-opacity:1;fill-rule:nonzero;stroke:none"
         id="path136"
         inkscape:connector-curvature="0" /><path
         d="m 2794.31,669.633 v -48.93 h 45.78 v -35.992 h -45.78 v -84.152 c 0,-23.086 6.26,-35.215 24.65,-35.215 9.01,0 13.3,0.781 18.78,2.344 l 0.79,-36.778 c -7.06,-2.734 -19.57,-5.09 -34.83,-5.09 -17.61,0 -32.48,6.25 -41.49,16.028 -10.17,10.957 -14.86,28.195 -14.86,53.242 v 89.621 h -27.4 v 35.992 h 27.4 v 35.219 l 46.96,13.711"
         style="fill:#ffffff;fill-opacity:1;fill-rule:nonzero;stroke:none"
         id="path138"
         inkscape:connector-curvature="0" /><path
         d="m 43.2539,964.996 c 16.9063,0 32.2109,6.926 43.2617,18.086 v 85.548 c -11.0508,11.19 -26.3554,18.12 -43.2617,18.12 -16.8906,0 -32.2148,-6.93 -43.2539,-18.08 v -85.588 c 11.0391,-11.16 26.3633,-18.086 43.2539,-18.086"
         style="fill:#ffffff;fill-opacity:1;fill-rule:nonzero;stroke:none"
         id="path140"
         inkscape:connector-curvature="0" /><path
         d="m 43.2539,774.387 c 16.9063,0 32.2109,6.941 43.2617,18.105 v 85.559 C 75.4648,889.211 60.1602,896.16 43.2539,896.16 26.3633,896.16 11.0391,889.234 0,878.074 v -85.601 c 11.0391,-11.157 26.3633,-18.086 43.2539,-18.086"
         style="fill:#ffffff;fill-opacity:1;fill-rule:nonzero;stroke:none"
         id="path142"
         inkscape:connector-curvature="0" /><path
         d="m 43.2539,593.02 c 16.9063,0 32.2109,6.921 43.2617,18.085 v 85.551 C 75.4648,707.84 60.1602,714.773 43.2539,714.773 26.3633,714.773 11.0391,707.84 0,696.699 V 611.098 C 11.0391,599.941 26.3633,593.02 43.2539,593.02"
         style="fill:#918f90;fill-opacity:1;fill-rule:nonzero;stroke:none"
         id="path144"
         inkscape:connector-curvature="0" /><path
         d="m 43.2539,411.621 c 16.9063,0 32.2109,6.965 43.2617,18.117 v 85.559 C 75.4648,526.457 60.1602,533.398 43.2539,533.398 26.3633,533.398 11.0391,526.457 0,515.313 v -85.594 c 11.0391,-11.172 26.3633,-18.098 43.2539,-18.098"
         style="fill:#918f90;fill-opacity:1;fill-rule:nonzero;stroke:none"
         id="path146"
         inkscape:connector-curvature="0" /><path
         d="m 247.793,964.996 c 16.914,0 32.223,6.926 43.262,18.086 v 85.548 c -11.039,11.19 -26.348,18.12 -43.262,18.12 -16.887,0 -32.203,-6.93 -43.242,-18.08 v -85.588 c 11.039,-11.16 26.355,-18.086 43.242,-18.086"
         style="fill:#ffffff;fill-opacity:1;fill-rule:nonzero;stroke:none"
         id="path148"
         inkscape:connector-curvature="0" /><path
         d="m 247.793,774.387 c 16.914,0 32.223,6.941 43.262,18.105 v 85.559 c -11.039,11.16 -26.348,18.109 -43.262,18.109 -16.887,0 -32.203,-6.926 -43.242,-18.086 v -85.601 c 11.039,-11.157 26.355,-18.086 43.242,-18.086"
         style="fill:#ffffff;fill-opacity:1;fill-rule:nonzero;stroke:none"
         id="path150"
         inkscape:connector-curvature="0" /><path
         d="m 247.793,593.02 c 16.914,0 32.223,6.921 43.262,18.085 v 85.551 c -11.039,11.184 -26.348,18.117 -43.262,18.117 -16.887,0 -32.203,-6.933 -43.242,-18.074 v -85.601 c 11.039,-11.157 26.355,-18.078 43.242,-18.078"
         style="fill:#918f90;fill-opacity:1;fill-rule:nonzero;stroke:none"
         id="path152"
         inkscape:connector-curvature="0" /><path
         d="m 247.793,411.621 c 16.914,0 32.223,6.965 43.262,18.117 v 85.559 c -11.039,11.16 -26.348,18.101 -43.262,18.101 -16.887,0 -32.203,-6.941 -43.242,-18.085 v -85.594 c 11.039,-11.172 26.355,-18.098 43.242,-18.098"
         style="fill:#918f90;fill-opacity:1;fill-rule:nonzero;stroke:none"
         id="path154"
         inkscape:connector-curvature="0" /><path
         d="m 449.156,965.008 c 16.907,0 32.211,6.922 43.254,18.086 v 85.536 c -11.043,11.2 -26.347,18.12 -43.254,18.12 -16.886,0 -32.207,-6.92 -43.25,-18.07 v -85.586 c 11.043,-11.164 26.364,-18.086 43.25,-18.086"
         style="fill:#ffffff;fill-opacity:1;fill-rule:nonzero;stroke:none"
         id="path156"
         inkscape:connector-curvature="0" /><path
         d="m 449.156,774.406 c 16.907,0 32.211,6.938 43.254,18.106 v 85.547 c -11.043,11.164 -26.347,18.117 -43.254,18.117 -16.886,0 -32.207,-6.93 -43.25,-18.094 v -85.59 c 11.043,-11.164 26.364,-18.086 43.25,-18.086"
         style="fill:#ffffff;fill-opacity:1;fill-rule:nonzero;stroke:none"
         id="path158"
         inkscape:connector-curvature="0" /><path
         d="m 449.156,593.051 c 16.907,0 32.211,6.922 43.254,18.086 v 85.547 c -11.043,11.175 -26.347,18.113 -43.254,18.113 -16.886,0 -32.207,-6.938 -43.25,-18.074 v -85.61 c 11.043,-11.14 26.364,-18.062 43.25,-18.062"
         style="fill:#918f90;fill-opacity:1;fill-rule:nonzero;stroke:none"
         id="path160"
         inkscape:connector-curvature="0" /><path
         d="m 449.156,411.66 c 16.907,0 32.211,6.977 43.254,18.117 v 85.547 c -11.043,11.16 -26.347,18.098 -43.254,18.098 -16.886,0 -32.207,-6.938 -43.25,-18.078 v -85.586 c 11.043,-11.172 26.364,-18.098 43.25,-18.098"
         style="fill:#918f90;fill-opacity:1;fill-rule:nonzero;stroke:none"
         id="path162"
         inkscape:connector-curvature="0" /><path
         d="m 650.508,964.996 c 16.91,0 32.211,6.926 43.258,18.086 v 85.548 c -11.047,11.19 -26.348,18.12 -43.258,18.12 -16.891,0 -32.211,-6.93 -43.25,-18.08 v -85.588 c 11.039,-11.16 26.359,-18.086 43.25,-18.086"
         style="fill:#ffffff;fill-opacity:1;fill-rule:nonzero;stroke:none"
         id="path164"
         inkscape:connector-curvature="0" /><path
         d="m 650.508,774.387 c 16.91,0 32.211,6.941 43.258,18.105 v 85.559 c -11.047,11.16 -26.348,18.109 -43.258,18.109 -16.891,0 -32.211,-6.926 -43.25,-18.086 v -85.601 c 11.039,-11.157 26.359,-18.086 43.25,-18.086"
         style="fill:#ffffff;fill-opacity:1;fill-rule:nonzero;stroke:none"
         id="path166"
         inkscape:connector-curvature="0" /><path
         d="m 650.508,593.02 c 16.91,0 32.211,6.921 43.258,18.085 v 85.551 c -11.047,11.184 -26.348,18.117 -43.258,18.117 -16.891,0 -32.211,-6.933 -43.25,-18.074 v -85.601 c 11.039,-11.157 26.359,-18.078 43.25,-18.078"
         style="fill:#918f90;fill-opacity:1;fill-rule:nonzero;stroke:none"
         id="path168"
         inkscape:connector-curvature="0" /><path
         d="m 650.508,411.621 c 16.91,0 32.211,6.965 43.258,18.117 v 85.559 c -11.047,11.16 -26.348,18.101 -43.258,18.101 -16.891,0 -32.211,-6.941 -43.25,-18.085 v -85.594 c 11.039,-11.172 26.359,-18.098 43.25,-18.098"
         style="fill:#918f90;fill-opacity:1;fill-rule:nonzero;stroke:none"
         id="path170"
         inkscape:connector-curvature="0" /></g></g></svg>