<?xml version="1.0" encoding="utf-8" standalone="no"?>
<!DOCTYPE svg PUBLIC "-//W3C//DTD SVG 1.1//EN"
  "http://www.w3.org/Graphics/SVG/1.1/DTD/svg11.dtd">
<!-- Created with matplotlib (https://matplotlib.org/) -->
<svg height="360pt" version="1.1" viewBox="0 0 360 360" width="360pt" xmlns="http://www.w3.org/2000/svg" xmlns:xlink="http://www.w3.org/1999/xlink">
 <defs>
  <style type="text/css">
*{stroke-linecap:butt;stroke-linejoin:round;}
  </style>
 </defs>
 <g id="figure_1">
  <g id="patch_1">
   <path d="M 0 360 
L 360 360 
L 360 0 
L 0 0 
z
" style="fill:#ffffff;"/>
  </g>
  <g id="axes_1">
   <g id="patch_2">
    <path d="M 0 360 
L 360 360 
L 360 0 
L 0 0 
z
" style="fill:#ffffff;"/>
   </g>
   <g id="matplotlib.axis_1">
    <g id="xtick_1">
     <g id="line2d_1">
      <defs>
       <path d="M 0 0 
L 0 3.5 
" id="m5dbeb745d7" style="stroke:#262626;stroke-width:0.8;"/>
      </defs>
      <g>
       <use style="fill:#262626;stroke:#262626;stroke-width:0.8;" x="0" xlink:href="#m5dbeb745d7" y="360"/>
      </g>
     </g>
     <g id="text_1">
      <!-- −100 -->
      <defs>
       <path d="M 10.59375 35.5 
L 73.1875 35.5 
L 73.1875 27.203125 
L 10.59375 27.203125 
z
" id="DejaVuSans-8722"/>
       <path d="M 12.40625 8.296875 
L 28.515625 8.296875 
L 28.515625 63.921875 
L 10.984375 60.40625 
L 10.984375 69.390625 
L 28.421875 72.90625 
L 38.28125 72.90625 
L 38.28125 8.296875 
L 54.390625 8.296875 
L 54.390625 0 
L 12.40625 0 
z
" id="DejaVuSans-49"/>
       <path d="M 31.78125 66.40625 
Q 24.171875 66.40625 20.328125 58.90625 
Q 16.5 51.421875 16.5 36.375 
Q 16.5 21.390625 20.328125 13.890625 
Q 24.171875 6.390625 31.78125 6.390625 
Q 39.453125 6.390625 43.28125 13.890625 
Q 47.125 21.390625 47.125 36.375 
Q 47.125 51.421875 43.28125 58.90625 
Q 39.453125 66.40625 31.78125 66.40625 
z
M 31.78125 74.21875 
Q 44.046875 74.21875 50.515625 64.515625 
Q 56.984375 54.828125 56.984375 36.375 
Q 56.984375 17.96875 50.515625 8.265625 
Q 44.046875 -1.421875 31.78125 -1.421875 
Q 19.53125 -1.421875 13.0625 8.265625 
Q 6.59375 17.96875 6.59375 36.375 
Q 6.59375 54.828125 13.0625 64.515625 
Q 19.53125 74.21875 31.78125 74.21875 
z
" id="DejaVuSans-48"/>
      </defs>
      <g style="fill:#262626;" transform="translate(-13.733594 374.598437)scale(0.1 -0.1)">
       <use xlink:href="#DejaVuSans-8722"/>
       <use x="83.789062" xlink:href="#DejaVuSans-49"/>
       <use x="147.412109" xlink:href="#DejaVuSans-48"/>
       <use x="211.035156" xlink:href="#DejaVuSans-48"/>
      </g>
     </g>
    </g>
    <g id="xtick_2">
     <g id="line2d_2">
      <g>
       <use style="fill:#262626;stroke:#262626;stroke-width:0.8;" x="45" xlink:href="#m5dbeb745d7" y="360"/>
      </g>
     </g>
     <g id="text_2">
      <!-- −75 -->
      <defs>
       <path d="M 8.203125 72.90625 
L 55.078125 72.90625 
L 55.078125 68.703125 
L 28.609375 0 
L 18.3125 0 
L 43.21875 64.59375 
L 8.203125 64.59375 
z
" id="DejaVuSans-55"/>
       <path d="M 10.796875 72.90625 
L 49.515625 72.90625 
L 49.515625 64.59375 
L 19.828125 64.59375 
L 19.828125 46.734375 
Q 21.96875 47.46875 24.109375 47.828125 
Q 26.265625 48.1875 28.421875 48.1875 
Q 40.625 48.1875 47.75 41.5 
Q 54.890625 34.8125 54.890625 23.390625 
Q 54.890625 11.625 47.5625 5.09375 
Q 40.234375 -1.421875 26.90625 -1.421875 
Q 22.3125 -1.421875 17.546875 -0.640625 
Q 12.796875 0.140625 7.71875 1.703125 
L 7.71875 11.625 
Q 12.109375 9.234375 16.796875 8.0625 
Q 21.484375 6.890625 26.703125 6.890625 
Q 35.15625 6.890625 40.078125 11.328125 
Q 45.015625 15.765625 45.015625 23.390625 
Q 45.015625 31 40.078125 35.4375 
Q 35.15625 39.890625 26.703125 39.890625 
Q 22.75 39.890625 18.8125 39.015625 
Q 14.890625 38.140625 10.796875 36.28125 
z
" id="DejaVuSans-53"/>
      </defs>
      <g style="fill:#262626;" transform="translate(34.447656 374.598437)scale(0.1 -0.1)">
       <use xlink:href="#DejaVuSans-8722"/>
       <use x="83.789062" xlink:href="#DejaVuSans-55"/>
       <use x="147.412109" xlink:href="#DejaVuSans-53"/>
      </g>
     </g>
    </g>
    <g id="xtick_3">
     <g id="line2d_3">
      <g>
       <use style="fill:#262626;stroke:#262626;stroke-width:0.8;" x="90" xlink:href="#m5dbeb745d7" y="360"/>
      </g>
     </g>
     <g id="text_3">
      <!-- −50 -->
      <g style="fill:#262626;" transform="translate(79.447656 374.598437)scale(0.1 -0.1)">
       <use xlink:href="#DejaVuSans-8722"/>
       <use x="83.789062" xlink:href="#DejaVuSans-53"/>
       <use x="147.412109" xlink:href="#DejaVuSans-48"/>
      </g>
     </g>
    </g>
    <g id="xtick_4">
     <g id="line2d_4">
      <g>
       <use style="fill:#262626;stroke:#262626;stroke-width:0.8;" x="135" xlink:href="#m5dbeb745d7" y="360"/>
      </g>
     </g>
     <g id="text_4">
      <!-- −25 -->
      <defs>
       <path d="M 19.1875 8.296875 
L 53.609375 8.296875 
L 53.609375 0 
L 7.328125 0 
L 7.328125 8.296875 
Q 12.9375 14.109375 22.625 23.890625 
Q 32.328125 33.6875 34.8125 36.53125 
Q 39.546875 41.84375 41.421875 45.53125 
Q 43.3125 49.21875 43.3125 52.78125 
Q 43.3125 58.59375 39.234375 62.25 
Q 35.15625 65.921875 28.609375 65.921875 
Q 23.96875 65.921875 18.8125 64.3125 
Q 13.671875 62.703125 7.8125 59.421875 
L 7.8125 69.390625 
Q 13.765625 71.78125 18.9375 73 
Q 24.125 74.21875 28.421875 74.21875 
Q 39.75 74.21875 46.484375 68.546875 
Q 53.21875 62.890625 53.21875 53.421875 
Q 53.21875 48.921875 51.53125 44.890625 
Q 49.859375 40.875 45.40625 35.40625 
Q 44.1875 33.984375 37.640625 27.21875 
Q 31.109375 20.453125 19.1875 8.296875 
z
" id="DejaVuSans-50"/>
      </defs>
      <g style="fill:#262626;" transform="translate(124.447656 374.598437)scale(0.1 -0.1)">
       <use xlink:href="#DejaVuSans-8722"/>
       <use x="83.789062" xlink:href="#DejaVuSans-50"/>
       <use x="147.412109" xlink:href="#DejaVuSans-53"/>
      </g>
     </g>
    </g>
    <g id="xtick_5">
     <g id="line2d_5">
      <g>
       <use style="fill:#262626;stroke:#262626;stroke-width:0.8;" x="180" xlink:href="#m5dbeb745d7" y="360"/>
      </g>
     </g>
     <g id="text_5">
      <!-- 0 -->
      <g style="fill:#262626;" transform="translate(176.81875 374.598437)scale(0.1 -0.1)">
       <use xlink:href="#DejaVuSans-48"/>
      </g>
     </g>
    </g>
    <g id="xtick_6">
     <g id="line2d_6">
      <g>
       <use style="fill:#262626;stroke:#262626;stroke-width:0.8;" x="225" xlink:href="#m5dbeb745d7" y="360"/>
      </g>
     </g>
     <g id="text_6">
      <!-- 25 -->
      <g style="fill:#262626;" transform="translate(218.6375 374.598437)scale(0.1 -0.1)">
       <use xlink:href="#DejaVuSans-50"/>
       <use x="63.623047" xlink:href="#DejaVuSans-53"/>
      </g>
     </g>
    </g>
    <g id="xtick_7">
     <g id="line2d_7">
      <g>
       <use style="fill:#262626;stroke:#262626;stroke-width:0.8;" x="270" xlink:href="#m5dbeb745d7" y="360"/>
      </g>
     </g>
     <g id="text_7">
      <!-- 50 -->
      <g style="fill:#262626;" transform="translate(263.6375 374.598437)scale(0.1 -0.1)">
       <use xlink:href="#DejaVuSans-53"/>
       <use x="63.623047" xlink:href="#DejaVuSans-48"/>
      </g>
     </g>
    </g>
    <g id="xtick_8">
     <g id="line2d_8">
      <g>
       <use style="fill:#262626;stroke:#262626;stroke-width:0.8;" x="315" xlink:href="#m5dbeb745d7" y="360"/>
      </g>
     </g>
     <g id="text_8">
      <!-- 75 -->
      <g style="fill:#262626;" transform="translate(308.6375 374.598437)scale(0.1 -0.1)">
       <use xlink:href="#DejaVuSans-55"/>
       <use x="63.623047" xlink:href="#DejaVuSans-53"/>
      </g>
     </g>
    </g>
    <g id="xtick_9">
     <g id="line2d_9">
      <g>
       <use style="fill:#262626;stroke:#262626;stroke-width:0.8;" x="360" xlink:href="#m5dbeb745d7" y="360"/>
      </g>
     </g>
     <g id="text_9">
      <!-- 100 -->
      <g style="fill:#262626;" transform="translate(350.45625 374.598437)scale(0.1 -0.1)">
       <use xlink:href="#DejaVuSans-49"/>
       <use x="63.623047" xlink:href="#DejaVuSans-48"/>
       <use x="127.246094" xlink:href="#DejaVuSans-48"/>
      </g>
     </g>
    </g>
   </g>
   <g id="matplotlib.axis_2">
    <g id="ytick_1">
     <g id="line2d_10">
      <defs>
       <path d="M 0 0 
L -3.5 0 
" id="m11584af440" style="stroke:#262626;stroke-width:0.8;"/>
      </defs>
      <g>
       <use style="fill:#262626;stroke:#262626;stroke-width:0.8;" x="0" xlink:href="#m11584af440" y="360"/>
      </g>
     </g>
     <g id="text_10">
      <!-- −10 -->
      <g style="fill:#262626;" transform="translate(-28.104688 363.799219)scale(0.1 -0.1)">
       <use xlink:href="#DejaVuSans-8722"/>
       <use x="83.789062" xlink:href="#DejaVuSans-49"/>
       <use x="147.412109" xlink:href="#DejaVuSans-48"/>
      </g>
     </g>
    </g>
    <g id="ytick_2">
     <g id="line2d_11">
      <g>
       <use style="fill:#262626;stroke:#262626;stroke-width:0.8;" x="0" xlink:href="#m11584af440" y="270"/>
      </g>
     </g>
     <g id="text_11">
      <!-- −5 -->
      <g style="fill:#262626;" transform="translate(-21.742188 273.799219)scale(0.1 -0.1)">
       <use xlink:href="#DejaVuSans-8722"/>
       <use x="83.789062" xlink:href="#DejaVuSans-53"/>
      </g>
     </g>
    </g>
    <g id="ytick_3">
     <g id="line2d_12">
      <g>
       <use style="fill:#262626;stroke:#262626;stroke-width:0.8;" x="0" xlink:href="#m11584af440" y="180"/>
      </g>
     </g>
     <g id="text_12">
      <!-- 0 -->
      <g style="fill:#262626;" transform="translate(-13.3625 183.799219)scale(0.1 -0.1)">
       <use xlink:href="#DejaVuSans-48"/>
      </g>
     </g>
    </g>
    <g id="ytick_4">
     <g id="line2d_13">
      <g>
       <use style="fill:#262626;stroke:#262626;stroke-width:0.8;" x="0" xlink:href="#m11584af440" y="90"/>
      </g>
     </g>
     <g id="text_13">
      <!-- 5 -->
      <g style="fill:#262626;" transform="translate(-13.3625 93.799219)scale(0.1 -0.1)">
       <use xlink:href="#DejaVuSans-53"/>
      </g>
     </g>
    </g>
    <g id="ytick_5">
     <g id="line2d_14">
      <g>
       <use style="fill:#262626;stroke:#262626;stroke-width:0.8;" x="0" xlink:href="#m11584af440" y="0"/>
      </g>
     </g>
     <g id="text_14">
      <!-- 10 -->
      <g style="fill:#262626;" transform="translate(-19.725 3.799219)scale(0.1 -0.1)">
       <use xlink:href="#DejaVuSans-49"/>
       <use x="63.623047" xlink:href="#DejaVuSans-48"/>
      </g>
     </g>
    </g>
    <g id="text_15">
     <!-- meridional wind-velocity [m/s] -->
     <defs>
      <path d="M 52 44.1875 
Q 55.375 50.25 60.0625 53.125 
Q 64.75 56 71.09375 56 
Q 79.640625 56 84.28125 50.015625 
Q 88.921875 44.046875 88.921875 33.015625 
L 88.921875 0 
L 79.890625 0 
L 79.890625 32.71875 
Q 79.890625 40.578125 77.09375 44.375 
Q 74.3125 48.1875 68.609375 48.1875 
Q 61.625 48.1875 57.5625 43.546875 
Q 53.515625 38.921875 53.515625 30.90625 
L 53.515625 0 
L 44.484375 0 
L 44.484375 32.71875 
Q 44.484375 40.625 41.703125 44.40625 
Q 38.921875 48.1875 33.109375 48.1875 
Q 26.21875 48.1875 22.15625 43.53125 
Q 18.109375 38.875 18.109375 30.90625 
L 18.109375 0 
L 9.078125 0 
L 9.078125 54.6875 
L 18.109375 54.6875 
L 18.109375 46.1875 
Q 21.1875 51.21875 25.484375 53.609375 
Q 29.78125 56 35.6875 56 
Q 41.65625 56 45.828125 52.96875 
Q 50 49.953125 52 44.1875 
z
" id="DejaVuSans-109"/>
      <path d="M 56.203125 29.59375 
L 56.203125 25.203125 
L 14.890625 25.203125 
Q 15.484375 15.921875 20.484375 11.0625 
Q 25.484375 6.203125 34.421875 6.203125 
Q 39.59375 6.203125 44.453125 7.46875 
Q 49.3125 8.734375 54.109375 11.28125 
L 54.109375 2.78125 
Q 49.265625 0.734375 44.1875 -0.34375 
Q 39.109375 -1.421875 33.890625 -1.421875 
Q 20.796875 -1.421875 13.15625 6.1875 
Q 5.515625 13.8125 5.515625 26.8125 
Q 5.515625 40.234375 12.765625 48.109375 
Q 20.015625 56 32.328125 56 
Q 43.359375 56 49.78125 48.890625 
Q 56.203125 41.796875 56.203125 29.59375 
z
M 47.21875 32.234375 
Q 47.125 39.59375 43.09375 43.984375 
Q 39.0625 48.390625 32.421875 48.390625 
Q 24.90625 48.390625 20.390625 44.140625 
Q 15.875 39.890625 15.1875 32.171875 
z
" id="DejaVuSans-101"/>
      <path d="M 41.109375 46.296875 
Q 39.59375 47.171875 37.8125 47.578125 
Q 36.03125 48 33.890625 48 
Q 26.265625 48 22.1875 43.046875 
Q 18.109375 38.09375 18.109375 28.8125 
L 18.109375 0 
L 9.078125 0 
L 9.078125 54.6875 
L 18.109375 54.6875 
L 18.109375 46.1875 
Q 20.953125 51.171875 25.484375 53.578125 
Q 30.03125 56 36.53125 56 
Q 37.453125 56 38.578125 55.875 
Q 39.703125 55.765625 41.0625 55.515625 
z
" id="DejaVuSans-114"/>
      <path d="M 9.421875 54.6875 
L 18.40625 54.6875 
L 18.40625 0 
L 9.421875 0 
z
M 9.421875 75.984375 
L 18.40625 75.984375 
L 18.40625 64.59375 
L 9.421875 64.59375 
z
" id="DejaVuSans-105"/>
      <path d="M 45.40625 46.390625 
L 45.40625 75.984375 
L 54.390625 75.984375 
L 54.390625 0 
L 45.40625 0 
L 45.40625 8.203125 
Q 42.578125 3.328125 38.25 0.953125 
Q 33.9375 -1.421875 27.875 -1.421875 
Q 17.96875 -1.421875 11.734375 6.484375 
Q 5.515625 14.40625 5.515625 27.296875 
Q 5.515625 40.1875 11.734375 48.09375 
Q 17.96875 56 27.875 56 
Q 33.9375 56 38.25 53.625 
Q 42.578125 51.265625 45.40625 46.390625 
z
M 14.796875 27.296875 
Q 14.796875 17.390625 18.875 11.75 
Q 22.953125 6.109375 30.078125 6.109375 
Q 37.203125 6.109375 41.296875 11.75 
Q 45.40625 17.390625 45.40625 27.296875 
Q 45.40625 37.203125 41.296875 42.84375 
Q 37.203125 48.484375 30.078125 48.484375 
Q 22.953125 48.484375 18.875 42.84375 
Q 14.796875 37.203125 14.796875 27.296875 
z
" id="DejaVuSans-100"/>
      <path d="M 30.609375 48.390625 
Q 23.390625 48.390625 19.1875 42.75 
Q 14.984375 37.109375 14.984375 27.296875 
Q 14.984375 17.484375 19.15625 11.84375 
Q 23.34375 6.203125 30.609375 6.203125 
Q 37.796875 6.203125 41.984375 11.859375 
Q 46.1875 17.53125 46.1875 27.296875 
Q 46.1875 37.015625 41.984375 42.703125 
Q 37.796875 48.390625 30.609375 48.390625 
z
M 30.609375 56 
Q 42.328125 56 49.015625 48.375 
Q 55.71875 40.765625 55.71875 27.296875 
Q 55.71875 13.875 49.015625 6.21875 
Q 42.328125 -1.421875 30.609375 -1.421875 
Q 18.84375 -1.421875 12.171875 6.21875 
Q 5.515625 13.875 5.515625 27.296875 
Q 5.515625 40.765625 12.171875 48.375 
Q 18.84375 56 30.609375 56 
z
" id="DejaVuSans-111"/>
      <path d="M 54.890625 33.015625 
L 54.890625 0 
L 45.90625 0 
L 45.90625 32.71875 
Q 45.90625 40.484375 42.875 44.328125 
Q 39.84375 48.1875 33.796875 48.1875 
Q 26.515625 48.1875 22.3125 43.546875 
Q 18.109375 38.921875 18.109375 30.90625 
L 18.109375 0 
L 9.078125 0 
L 9.078125 54.6875 
L 18.109375 54.6875 
L 18.109375 46.1875 
Q 21.34375 51.125 25.703125 53.5625 
Q 30.078125 56 35.796875 56 
Q 45.21875 56 50.046875 50.171875 
Q 54.890625 44.34375 54.890625 33.015625 
z
" id="DejaVuSans-110"/>
      <path d="M 34.28125 27.484375 
Q 23.390625 27.484375 19.1875 25 
Q 14.984375 22.515625 14.984375 16.5 
Q 14.984375 11.71875 18.140625 8.90625 
Q 21.296875 6.109375 26.703125 6.109375 
Q 34.1875 6.109375 38.703125 11.40625 
Q 43.21875 16.703125 43.21875 25.484375 
L 43.21875 27.484375 
z
M 52.203125 31.203125 
L 52.203125 0 
L 43.21875 0 
L 43.21875 8.296875 
Q 40.140625 3.328125 35.546875 0.953125 
Q 30.953125 -1.421875 24.3125 -1.421875 
Q 15.921875 -1.421875 10.953125 3.296875 
Q 6 8.015625 6 15.921875 
Q 6 25.140625 12.171875 29.828125 
Q 18.359375 34.515625 30.609375 34.515625 
L 43.21875 34.515625 
L 43.21875 35.40625 
Q 43.21875 41.609375 39.140625 45 
Q 35.0625 48.390625 27.6875 48.390625 
Q 23 48.390625 18.546875 47.265625 
Q 14.109375 46.140625 10.015625 43.890625 
L 10.015625 52.203125 
Q 14.9375 54.109375 19.578125 55.046875 
Q 24.21875 56 28.609375 56 
Q 40.484375 56 46.34375 49.84375 
Q 52.203125 43.703125 52.203125 31.203125 
z
" id="DejaVuSans-97"/>
      <path d="M 9.421875 75.984375 
L 18.40625 75.984375 
L 18.40625 0 
L 9.421875 0 
z
" id="DejaVuSans-108"/>
      <path id="DejaVuSans-32"/>
      <path d="M 4.203125 54.6875 
L 13.1875 54.6875 
L 24.421875 12.015625 
L 35.59375 54.6875 
L 46.1875 54.6875 
L 57.421875 12.015625 
L 68.609375 54.6875 
L 77.59375 54.6875 
L 63.28125 0 
L 52.6875 0 
L 40.921875 44.828125 
L 29.109375 0 
L 18.5 0 
z
" id="DejaVuSans-119"/>
      <path d="M 4.890625 31.390625 
L 31.203125 31.390625 
L 31.203125 23.390625 
L 4.890625 23.390625 
z
" id="DejaVuSans-45"/>
      <path d="M 2.984375 54.6875 
L 12.5 54.6875 
L 29.59375 8.796875 
L 46.6875 54.6875 
L 56.203125 54.6875 
L 35.6875 0 
L 23.484375 0 
z
" id="DejaVuSans-118"/>
      <path d="M 48.78125 52.59375 
L 48.78125 44.1875 
Q 44.96875 46.296875 41.140625 47.34375 
Q 37.3125 48.390625 33.40625 48.390625 
Q 24.65625 48.390625 19.8125 42.84375 
Q 14.984375 37.3125 14.984375 27.296875 
Q 14.984375 17.28125 19.8125 11.734375 
Q 24.65625 6.203125 33.40625 6.203125 
Q 37.3125 6.203125 41.140625 7.25 
Q 44.96875 8.296875 48.78125 10.40625 
L 48.78125 2.09375 
Q 45.015625 0.34375 40.984375 -0.53125 
Q 36.96875 -1.421875 32.421875 -1.421875 
Q 20.0625 -1.421875 12.78125 6.34375 
Q 5.515625 14.109375 5.515625 27.296875 
Q 5.515625 40.671875 12.859375 48.328125 
Q 20.21875 56 33.015625 56 
Q 37.15625 56 41.109375 55.140625 
Q 45.0625 54.296875 48.78125 52.59375 
z
" id="DejaVuSans-99"/>
      <path d="M 18.3125 70.21875 
L 18.3125 54.6875 
L 36.8125 54.6875 
L 36.8125 47.703125 
L 18.3125 47.703125 
L 18.3125 18.015625 
Q 18.3125 11.328125 20.140625 9.421875 
Q 21.96875 7.515625 27.59375 7.515625 
L 36.8125 7.515625 
L 36.8125 0 
L 27.59375 0 
Q 17.1875 0 13.234375 3.875 
Q 9.28125 7.765625 9.28125 18.015625 
L 9.28125 47.703125 
L 2.6875 47.703125 
L 2.6875 54.6875 
L 9.28125 54.6875 
L 9.28125 70.21875 
z
" id="DejaVuSans-116"/>
      <path d="M 32.171875 -5.078125 
Q 28.375 -14.84375 24.75 -17.8125 
Q 21.140625 -20.796875 15.09375 -20.796875 
L 7.90625 -20.796875 
L 7.90625 -13.28125 
L 13.1875 -13.28125 
Q 16.890625 -13.28125 18.9375 -11.515625 
Q 21 -9.765625 23.484375 -3.21875 
L 25.09375 0.875 
L 2.984375 54.6875 
L 12.5 54.6875 
L 29.59375 11.921875 
L 46.6875 54.6875 
L 56.203125 54.6875 
z
" id="DejaVuSans-121"/>
      <path d="M 8.59375 75.984375 
L 29.296875 75.984375 
L 29.296875 69 
L 17.578125 69 
L 17.578125 -6.203125 
L 29.296875 -6.203125 
L 29.296875 -13.1875 
L 8.59375 -13.1875 
z
" id="DejaVuSans-91"/>
      <path d="M 25.390625 72.90625 
L 33.6875 72.90625 
L 8.296875 -9.28125 
L 0 -9.28125 
z
" id="DejaVuSans-47"/>
      <path d="M 44.28125 53.078125 
L 44.28125 44.578125 
Q 40.484375 46.53125 36.375 47.5 
Q 32.28125 48.484375 27.875 48.484375 
Q 21.1875 48.484375 17.84375 46.4375 
Q 14.5 44.390625 14.5 40.28125 
Q 14.5 37.15625 16.890625 35.375 
Q 19.28125 33.59375 26.515625 31.984375 
L 29.59375 31.296875 
Q 39.15625 29.25 43.1875 25.515625 
Q 47.21875 21.78125 47.21875 15.09375 
Q 47.21875 7.46875 41.1875 3.015625 
Q 35.15625 -1.421875 24.609375 -1.421875 
Q 20.21875 -1.421875 15.453125 -0.5625 
Q 10.6875 0.296875 5.421875 2 
L 5.421875 11.28125 
Q 10.40625 8.6875 15.234375 7.390625 
Q 20.0625 6.109375 24.8125 6.109375 
Q 31.15625 6.109375 34.5625 8.28125 
Q 37.984375 10.453125 37.984375 14.40625 
Q 37.984375 18.0625 35.515625 20.015625 
Q 33.0625 21.96875 24.703125 23.78125 
L 21.578125 24.515625 
Q 13.234375 26.265625 9.515625 29.90625 
Q 5.8125 33.546875 5.8125 39.890625 
Q 5.8125 47.609375 11.28125 51.796875 
Q 16.75 56 26.8125 56 
Q 31.78125 56 36.171875 55.265625 
Q 40.578125 54.546875 44.28125 53.078125 
z
" id="DejaVuSans-115"/>
      <path d="M 30.421875 75.984375 
L 30.421875 -13.1875 
L 9.71875 -13.1875 
L 9.71875 -6.203125 
L 21.390625 -6.203125 
L 21.390625 69 
L 9.71875 69 
L 9.71875 75.984375 
z
" id="DejaVuSans-93"/>
     </defs>
     <g style="fill:#262626;" transform="translate(-34.184375 255.910937)rotate(-90)scale(0.1 -0.1)">
      <use xlink:href="#DejaVuSans-109"/>
      <use x="97.412109" xlink:href="#DejaVuSans-101"/>
      <use x="158.935547" xlink:href="#DejaVuSans-114"/>
      <use x="200.048828" xlink:href="#DejaVuSans-105"/>
      <use x="227.832031" xlink:href="#DejaVuSans-100"/>
      <use x="291.308594" xlink:href="#DejaVuSans-105"/>
      <use x="319.091797" xlink:href="#DejaVuSans-111"/>
      <use x="380.273438" xlink:href="#DejaVuSans-110"/>
      <use x="443.652344" xlink:href="#DejaVuSans-97"/>
      <use x="504.931641" xlink:href="#DejaVuSans-108"/>
      <use x="532.714844" xlink:href="#DejaVuSans-32"/>
      <use x="564.501953" xlink:href="#DejaVuSans-119"/>
      <use x="646.289062" xlink:href="#DejaVuSans-105"/>
      <use x="674.072266" xlink:href="#DejaVuSans-110"/>
      <use x="737.451172" xlink:href="#DejaVuSans-100"/>
      <use x="800.927734" xlink:href="#DejaVuSans-45"/>
      <use x="834.386719" xlink:href="#DejaVuSans-118"/>
      <use x="893.566406" xlink:href="#DejaVuSans-101"/>
      <use x="955.089844" xlink:href="#DejaVuSans-108"/>
      <use x="982.873047" xlink:href="#DejaVuSans-111"/>
      <use x="1044.054688" xlink:href="#DejaVuSans-99"/>
      <use x="1099.035156" xlink:href="#DejaVuSans-105"/>
      <use x="1126.818359" xlink:href="#DejaVuSans-116"/>
      <use x="1166.027344" xlink:href="#DejaVuSans-121"/>
      <use x="1225.207031" xlink:href="#DejaVuSans-32"/>
      <use x="1256.994141" xlink:href="#DejaVuSans-91"/>
      <use x="1296.007812" xlink:href="#DejaVuSans-109"/>
      <use x="1393.419922" xlink:href="#DejaVuSans-47"/>
      <use x="1427.111328" xlink:href="#DejaVuSans-115"/>
      <use x="1479.210938" xlink:href="#DejaVuSans-93"/>
     </g>
    </g>
   </g>
   <g id="line2d_15">
    <path clip-path="url(#p849fe30e31)" d="M 339.429903 138.203922 
L 336.100556 155.817204 
L 332.751547 177.007633 
L 329.398095 205.088688 
L 326.042958 218.579899 
L 322.687006 209.949039 
L 319.330599 194.928532 
L 315.973911 193.750797 
L 312.617038 204.209782 
L 309.260038 203.937321 
L 305.902945 194.66486 
L 302.545784 186.684391 
L 299.18857 166.856266 
L 295.831315 127.867985 
L 292.474027 101.896305 
L 289.116713 105.367985 
L 285.759377 117.593571 
L 282.402023 118.314274 
L 279.044654 117.259586 
L 275.687272 115.616032 
L 272.329879 102.546696 
L 268.972477 95.612125 
L 265.615066 110.219547 
L 262.257649 127.762516 
L 258.900225 141.341618 
L 255.542796 154.402164 
L 252.185363 173.19318 
L 248.827925 174.476383 
L 245.470483 161.811344 
L 242.113038 164.676579 
L 238.75559 187.598454 
L 235.398139 209.843571 
L 232.040686 219.871891 
L 228.683231 225.707829 
L 225.325774 232.589664 
L 221.968315 230.585758 
L 218.610855 218.395329 
L 215.253393 213.666813 
L 211.895931 219.388493 
L 208.538467 220.170719 
L 205.181002 221.796696 
L 201.823537 235.771305 
L 198.466071 234.470524 
L 195.108604 191.922672 
L 191.751137 141.31525 
L 188.393669 123.956852 
L 185.036202 139.645329 
L 181.678734 144.628727 
L 178.321266 138.50275 
L 174.963798 132.464664 
L 171.606331 127.270329 
L 168.248863 126.857243 
L 164.891396 131.981266 
L 161.533929 130.944157 
L 158.176463 121.06525 
L 154.818998 110.105289 
L 151.461533 99.989079 
L 148.104069 88.449039 
L 144.746607 81.496891 
L 141.389145 79.009586 
L 138.031685 76.082829 
L 134.674226 74.518375 
L 131.316769 76.926579 
L 127.959314 85.038883 
L 124.601861 99.004704 
L 121.24441 114.719547 
L 117.886962 129.740055 
L 114.529517 148.706852 
L 111.172075 169.783024 
L 107.814637 184.425602 
L 104.457204 195.280094 
L 101.099775 205.853336 
L 97.742351 210.625797 
L 94.384934 209.263493 
L 91.027523 204.570133 
L 87.670121 201.001774 
L 84.312728 199.120914 
L 80.955346 195.781071 
L 77.597977 185.981266 
L 74.240623 171.88361 
L 70.883287 164.843571 
L 67.525973 164.47443 
L 64.168685 161.714664 
L 60.81143 166.135563 
L 57.454216 175.926579 
L 54.097055 164.254704 
L 50.739962 143.47736 
L 47.382962 162.523258 
L 44.026089 218.562321 
L 40.669401 256.469547 
L 37.312994 254.632633 
L 33.957042 236.0965 
L 30.601905 222.499821 
L 27.248453 219.845524 
L 23.899444 219.678532 
L 20.570097 213.561344 
" style="fill:none;stroke:#3b4cc0;stroke-linecap:round;stroke-width:1.5;"/>
   </g>
   <g id="line2d_16">
    <path clip-path="url(#p849fe30e31)" d="M 339.429903 145.000889 
L 336.100556 153.772373 
L 332.751547 180.341709 
L 329.398095 208.159092 
L 326.042958 220.947178 
L 322.687006 229.894444 
L 319.330599 247.200108 
L 315.973911 268.26749 
L 312.617038 292.481358 
L 309.260038 312.037022 
L 305.902945 309.233311 
L 302.545784 293.070225 
L 299.18857 289.686436 
L 295.831315 288.693272 
L 292.474027 268.329014 
L 289.116713 240.247959 
L 285.759377 229.912022 
L 282.402023 232.205967 
L 279.044654 235.097569 
L 275.687272 229.200108 
L 272.329879 207.939365 
L 268.972477 183.04874 
L 265.615066 173.890537 
L 262.257649 172.229404 
L 258.900225 172.493076 
L 255.542796 180.79874 
L 252.185363 191.222569 
L 248.827925 191.371983 
L 245.470483 188.383701 
L 242.113038 189.508701 
L 238.75559 189.262608 
L 235.398139 187.408115 
L 232.040686 190.844639 
L 228.683231 203.852451 
L 225.325774 223.36417 
L 221.968315 236.609287 
L 218.610855 238.674717 
L 215.253393 240.230381 
L 211.895931 241.759678 
L 208.538467 238.411045 
L 205.181002 241.961826 
L 201.823537 244.633701 
L 198.466071 211.876865 
L 195.108604 155.881748 
L 191.751137 130.463779 
L 188.393669 138.083897 
L 185.036202 144.412022 
L 181.678734 138.769444 
L 178.321266 136.018467 
L 174.963798 130.041904 
L 171.606331 119.284092 
L 168.248863 115.381748 
L 164.891396 117.789951 
L 161.533929 116.761631 
L 158.176463 113.615147 
L 154.818998 109.484287 
L 151.461533 103.586826 
L 148.104069 97.54874 
L 144.746607 94.129795 
L 141.389145 91.712803 
L 138.031685 90.702061 
L 134.674226 90.552647 
L 131.316769 89.796787 
L 127.959314 94.788975 
L 124.601861 108.376865 
L 121.24441 125.568272 
L 117.886962 143.656162 
L 114.529517 163.466709 
L 111.172075 183.04874 
L 107.814637 194.887608 
L 104.457204 197.805576 
L 101.099775 196.223545 
L 97.742351 196.408115 
L 94.384934 203.615147 
L 91.027523 213.0546 
L 87.670121 217.879795 
L 84.312728 211.296787 
L 80.955346 194.632725 
L 77.597977 175.595615 
L 74.240623 160.557529 
L 70.883287 155.161045 
L 67.525973 158.878819 
L 64.168685 159.70499 
L 60.81143 154.000889 
L 57.454216 149.834873 
L 54.097055 138.971592 
L 50.739962 127.36124 
L 47.382962 153.280186 
L 44.026089 219.444248 
L 40.669401 271.83585 
L 37.312994 272.468662 
L 33.957042 240.555576 
L 30.601905 212.896397 
L 27.248453 203.993076 
L 23.899444 200.345615 
L 20.570097 190.000889 
" style="fill:none;stroke:#8db0fe;stroke-linecap:round;stroke-width:1.5;"/>
   </g>
   <g id="line2d_17">
    <path clip-path="url(#p849fe30e31)" d="M 339.429903 122.102154 
L 336.100556 141.490826 
L 332.751547 177.561138 
L 329.398095 203.13731 
L 326.042958 208.366802 
L 322.687006 200.860943 
L 319.330599 195.218365 
L 315.973911 190.428326 
L 312.617038 187.316998 
L 309.260038 187.888287 
L 305.902945 192.274029 
L 302.545784 197.819927 
L 299.18857 188.925396 
L 295.831315 162.936138 
L 292.474027 144.276958 
L 289.116713 143.345318 
L 285.759377 155.14024 
L 282.402023 170.248638 
L 279.044654 191.465435 
L 275.687272 210.950787 
L 272.329879 217.226177 
L 268.972477 210.906841 
L 265.615066 195.72813 
L 262.257649 179.688091 
L 258.900225 177.095318 
L 255.542796 191.650005 
L 252.185363 195.341412 
L 248.827925 186.042583 
L 245.470483 192.203716 
L 242.113038 209.597271 
L 238.75559 209.808208 
L 235.398139 202.003521 
L 232.040686 213.842388 
L 228.683231 238.987896 
L 225.325774 253.349224 
L 221.968315 251.863873 
L 218.610855 243.619732 
L 215.253393 234.048443 
L 211.895931 225.619732 
L 208.538467 222.130474 
L 205.181002 216.338482 
L 201.823537 189.136333 
L 198.466071 145.38438 
L 195.108604 120.221294 
L 191.751137 124.20274 
L 188.393669 129.247662 
L 185.036202 128.166607 
L 181.678734 127.252544 
L 178.321266 124.00938 
L 174.963798 114.174419 
L 171.606331 106.519146 
L 168.248863 105.657818 
L 164.891396 105.789654 
L 161.533929 104.88438 
L 158.176463 103.776958 
L 154.818998 101.913677 
L 151.461533 100.208599 
L 148.104069 98.556255 
L 144.746607 98.732037 
L 141.389145 103.065044 
L 138.031685 111.019146 
L 134.674226 122.049419 
L 131.316769 136.006451 
L 127.959314 151.237896 
L 124.601861 166.522076 
L 121.24441 181.911724 
L 117.886962 195.086529 
L 114.529517 205.158794 
L 111.172075 209.061138 
L 107.814637 203.79649 
L 104.457204 189.760357 
L 101.099775 177.763287 
L 97.742351 175.653912 
L 94.384934 178.492779 
L 91.027523 183.291607 
L 87.670121 187.088482 
L 84.312728 189.690044 
L 80.955346 190.525005 
L 77.597977 184.864849 
L 74.240623 176.084576 
L 70.883287 173.017193 
L 67.525973 172.463482 
L 64.168685 167.849224 
L 60.81143 164.711529 
L 57.454216 156.854107 
L 54.097055 128.210552 
L 50.739962 104.849224 
L 47.382962 141.332623 
L 44.026089 231.183208 
L 40.669401 306.162701 
L 37.312994 308.98399 
L 33.957042 248.647076 
L 30.601905 195.200787 
L 27.248453 195.323833 
L 23.899444 210.26524 
L 20.570097 205.659771 
" style="fill:none;stroke:#dddcdc;stroke-linecap:round;stroke-width:1.5;"/>
   </g>
   <g id="line2d_18">
    <path clip-path="url(#p849fe30e31)" d="M 339.429903 129.639221 
L 336.100556 141.680237 
L 332.751547 155.356018 
L 329.398095 158.977112 
L 326.042958 158.186096 
L 322.687006 155.250549 
L 319.330599 149.748596 
L 315.973911 153.606995 
L 312.617038 171.000549 
L 309.260038 190.503479 
L 305.902945 209.839417 
L 302.545784 228.050354 
L 299.18857 234.264221 
L 295.831315 228.551331 
L 292.474027 230.950745 
L 289.116713 250.726135 
L 285.759377 270.888245 
L 282.402023 277.532776 
L 279.044654 278.754456 
L 275.687272 282.762268 
L 272.329879 284.423401 
L 268.972477 267.891174 
L 265.615066 243.527893 
L 262.257649 232.040588 
L 258.900225 223.919495 
L 255.542796 221.33551 
L 252.185363 210.981995 
L 248.827925 208.020081 
L 245.470483 220.359924 
L 242.113038 222.583557 
L 238.75559 200.681213 
L 235.398139 186.583557 
L 232.040686 204.082581 
L 228.683231 233.824768 
L 225.325774 256.386292 
L 221.968315 271.301331 
L 218.610855 278.306213 
L 215.253393 281.566956 
L 211.895931 277.928284 
L 208.538467 238.465393 
L 205.181002 161.701721 
L 201.823537 108.475159 
L 198.466071 117.826721 
L 195.108604 148.904846 
L 191.751137 154.459534 
L 188.393669 139.834534 
L 185.036202 130.632385 
L 181.678734 122.045471 
L 178.321266 110.030823 
L 174.963798 97.427307 
L 171.606331 86.484924 
L 168.248863 79.014221 
L 164.891396 75.964417 
L 161.533929 74.33844 
L 158.176463 75.234924 
L 154.818998 78.548401 
L 151.461533 81.492737 
L 148.104069 84.797424 
L 144.746607 91.266174 
L 141.389145 98.90387 
L 138.031685 106.251526 
L 134.674226 114.46051 
L 131.316769 123.847229 
L 127.959314 134.543518 
L 124.601861 146.364807 
L 121.24441 157.368713 
L 117.886962 169.181213 
L 114.529517 184.86969 
L 111.172075 205.172424 
L 107.814637 225.483948 
L 104.457204 239.660706 
L 101.099775 244.951721 
L 97.742351 252.448792 
L 94.384934 261.55426 
L 91.027523 266.256409 
L 87.670121 266.001526 
L 84.312728 265.553284 
L 80.955346 266.238831 
L 77.597977 260.587463 
L 74.240623 254.013245 
L 70.883287 250.374573 
L 67.525973 242.14801 
L 64.168685 231.768127 
L 60.81143 222.346252 
L 57.454216 196.743713 
L 54.097055 150.152893 
L 50.739962 128.856995 
L 47.382962 163.283752 
L 44.026089 236.171448 
L 40.669401 303.715393 
L 37.312994 316.802307 
L 33.957042 264.524963 
L 30.601905 211.40387 
L 27.248453 211.702698 
L 23.899444 223.567932 
L 20.570097 207.861877 
" style="fill:none;stroke:#f4987a;stroke-linecap:round;stroke-width:1.5;"/>
   </g>
   <g id="line2d_19">
    <path clip-path="url(#p849fe30e31)" d="M 339.429903 190.063648 
L 336.100556 193.948414 
L 332.751547 198.448414 
L 329.398095 194.238453 
L 326.042958 182.030445 
L 322.687006 173.496265 
L 319.330599 173.250172 
L 315.973911 180.325367 
L 312.617038 198.94939 
L 309.260038 228.006031 
L 305.902945 248.669117 
L 302.545784 247.544117 
L 299.18857 233.956226 
L 295.831315 214.426929 
L 292.474027 196.13689 
L 289.116713 191.329273 
L 285.759377 195.618336 
L 282.402023 191.689625 
L 279.044654 180.096851 
L 275.687272 170.754078 
L 272.329879 165.401539 
L 268.972477 163.098804 
L 265.615066 164.926929 
L 262.257649 176.16814 
L 258.900225 187.453297 
L 255.542796 182.206226 
L 252.185363 168.073414 
L 248.827925 178.031422 
L 245.470483 207.808765 
L 242.113038 208.344898 
L 238.75559 174.717945 
L 235.398139 162.685719 
L 232.040686 190.696461 
L 228.683231 217.872242 
L 225.325774 226.072437 
L 221.968315 236.232594 
L 218.610855 249.196461 
L 215.253393 236.689625 
L 211.895931 186.556812 
L 208.538467 124.51482 
L 205.181002 89.156422 
L 201.823537 94.544117 
L 198.466071 122.994312 
L 195.108604 147.243336 
L 191.751137 149.405445 
L 188.393669 128.689625 
L 185.036202 109.801929 
L 181.678734 99.799976 
L 178.321266 96.38982 
L 174.963798 93.550953 
L 171.606331 89.815601 
L 168.248863 83.188648 
L 164.891396 76.570484 
L 161.533929 74.689625 
L 158.176463 78.143726 
L 154.818998 82.51189 
L 151.461533 87.442554 
L 148.104069 93.797047 
L 144.746607 100.582203 
L 141.389145 110.215015 
L 138.031685 127.353687 
L 134.674226 146.425953 
L 131.316769 160.998219 
L 127.959314 175.429859 
L 124.601861 193.289234 
L 121.24441 210.120289 
L 117.886962 224.877125 
L 114.529517 234.975758 
L 111.172075 238.614429 
L 107.814637 240.029469 
L 104.457204 239.009937 
L 101.099775 232.954273 
L 97.742351 220.939625 
L 94.384934 205.163258 
L 91.027523 192.920094 
L 87.670121 187.13689 
L 84.312728 186.372242 
L 80.955346 181.160328 
L 77.597977 165.278492 
L 74.240623 151.224781 
L 70.883287 151.936695 
L 67.525973 156.814625 
L 64.168685 155.258961 
L 60.81143 155.17107 
L 57.454216 151.356617 
L 54.097055 122.379078 
L 50.739962 107.297047 
L 47.382962 156.972828 
L 44.026089 252.061695 
L 40.669401 327.999195 
L 37.312994 334.784351 
L 33.957042 278.903492 
L 30.601905 225.38689 
L 27.248453 216.149586 
L 23.899444 209.812672 
L 20.570097 183.867359 
" style="fill:none;stroke:#b40426;stroke-linecap:round;stroke-width:1.5;"/>
   </g>
   <g id="patch_3">
    <path d="M 0 360 
L 0 0 
" style="fill:none;stroke:#262626;stroke-linecap:square;stroke-linejoin:miter;stroke-width:0.8;"/>
   </g>
   <g id="patch_4">
    <path d="M 360 360 
L 360 0 
" style="fill:none;stroke:#262626;stroke-linecap:square;stroke-linejoin:miter;stroke-width:0.8;"/>
   </g>
   <g id="patch_5">
    <path d="M 0 360 
L 360 360 
" style="fill:none;stroke:#262626;stroke-linecap:square;stroke-linejoin:miter;stroke-width:0.8;"/>
   </g>
   <g id="patch_6">
    <path d="M 0 0 
L 360 0 
" style="fill:none;stroke:#262626;stroke-linecap:square;stroke-linejoin:miter;stroke-width:0.8;"/>
   </g>
  </g>
 </g>
 <defs>
  <clipPath id="p849fe30e31">
   <rect height="360" width="360" x="0" y="0"/>
  </clipPath>
 </defs>
</svg>
